<svg width="169" height="114" viewBox="0 0 169 114" fill="none" xmlns="http://www.w3.org/2000/svg">
<path d="M145.912 51.6556C145.938 51.6291 145.957 51.5962 145.966 51.5603C145.975 51.5243 145.974 51.4866 145.963 51.4511C145.949 51.4053 145.919 51.3661 145.878 51.3403L140.338 1.2558C140.334 1.20343 140.31 1.15459 140.271 1.11905C140.233 1.0835 140.182 1.06386 140.129 1.06403H115.413L115.383 0.782783C115.38 0.754802 115.371 0.727753 115.357 0.703187C115.344 0.678621 115.325 0.657018 115.303 0.639606C115.281 0.622195 115.255 0.609316 115.228 0.60171C115.201 0.594105 115.173 0.591922 115.145 0.595279C115.117 0.598637 115.09 0.607473 115.065 0.621283C115.041 0.635093 115.019 0.653607 115.002 0.675766C114.984 0.697926 114.971 0.723298 114.964 0.750433C114.956 0.777569 114.954 0.805937 114.957 0.833918L114.987 1.06403H76.8048L76.7494 0.769999C76.738 0.71438 76.7054 0.665407 76.6584 0.633553C76.6114 0.601699 76.5538 0.589489 76.498 0.599538C76.4705 0.60513 76.4445 0.61607 76.4213 0.631732C76.3981 0.647394 76.3782 0.667471 76.3628 0.690819C76.3473 0.714168 76.3367 0.74033 76.3313 0.767808C76.326 0.795286 76.3262 0.823539 76.3318 0.850961L76.3744 1.06403H21.2785C21.245 1.06452 21.2122 1.07288 21.1825 1.08843C21.1529 1.10398 21.1274 1.12628 21.108 1.15352C21.0886 1.1802 21.0757 1.21109 21.0705 1.24369C21.0654 1.27628 21.068 1.30964 21.0782 1.34103L24.0356 10.9505C24.1166 11.3767 25.1393 17.0188 23.6095 22.0302L21.7046 11.611C21.6996 11.5831 21.6891 11.5564 21.6737 11.5324C21.6583 11.5085 21.6384 11.4878 21.6151 11.4716C21.5917 11.4554 21.5654 11.4439 21.5376 11.4379C21.5099 11.4318 21.4812 11.4313 21.4532 11.4363C21.4252 11.4414 21.3985 11.4519 21.3746 11.4672C21.3506 11.4826 21.33 11.5025 21.3137 11.5259C21.2975 11.5492 21.2861 11.5755 21.28 11.6033C21.2739 11.6311 21.2734 11.6598 21.2785 11.6878L23.3197 22.874C22.8688 24.1459 22.1933 25.3265 21.3253 26.3598C21.3055 26.3793 21.2897 26.4025 21.279 26.4281C21.2682 26.4537 21.2627 26.4812 21.2627 26.509C21.2627 26.5368 21.2682 26.5643 21.279 26.5899C21.2897 26.6155 21.3055 26.6387 21.3253 26.6581C21.3686 26.6947 21.4244 26.713 21.4809 26.709C21.5375 26.705 21.5902 26.6791 21.6279 26.6368C22.3821 25.7412 22.9943 24.7352 23.4433 23.6538L25.5101 34.6653C24.389 35.5922 22.9713 36.0839 21.5171 36.0503C21.4606 36.0503 21.4064 36.0728 21.3664 36.1127C21.3265 36.1527 21.304 36.2069 21.304 36.2634C21.304 36.3199 21.3265 36.3741 21.3664 36.414C21.4064 36.454 21.4606 36.4764 21.5171 36.4764C22.9874 36.5095 24.4253 36.0422 25.5953 35.1511L28.6124 51.6471C26.1769 52.6169 23.6101 53.2172 20.9972 53.4284C20.9692 53.4305 20.9419 53.4382 20.9168 53.4509C20.8918 53.4637 20.8695 53.4813 20.8513 53.5026C20.8331 53.524 20.8193 53.5488 20.8107 53.5756C20.8021 53.6023 20.7989 53.6305 20.8012 53.6585C20.8066 53.7146 20.8336 53.7665 20.8766 53.8031C20.9195 53.8396 20.975 53.8581 21.0313 53.8545C23.6617 53.6431 26.2465 53.0443 28.7019 52.0775L32.5712 73.244C28.7404 74.6193 24.773 75.5794 20.7373 76.1077C20.6814 76.1151 20.6307 76.1444 20.5963 76.1891C20.562 76.2338 20.5468 76.2904 20.554 76.3463C20.5565 76.3745 20.5649 76.4018 20.5785 76.4266C20.5921 76.4513 20.6107 76.473 20.6332 76.4902C20.6556 76.5075 20.6813 76.5198 20.7088 76.5266C20.7362 76.5334 20.7648 76.5344 20.7927 76.5295C24.8352 76.0004 28.8096 75.0404 32.6479 73.6659L35.3113 88.3592H21.2785C21.222 88.3592 21.1678 88.3817 21.1278 88.4217C21.0878 88.4616 21.0654 88.5158 21.0654 88.5723C21.0665 88.6285 21.0893 88.682 21.129 88.7218C21.1687 88.7615 21.2223 88.7843 21.2785 88.7854H149.786C149.816 88.7856 149.846 88.7792 149.873 88.7667C149.9 88.7542 149.924 88.7358 149.944 88.7129C149.964 88.6907 149.98 88.6645 149.989 88.6358C149.999 88.6071 150.002 88.5768 149.999 88.5467L145.912 51.6556ZM76.9582 88.3592L74.9042 79.3549C80.5164 80.2322 86.1754 80.7786 91.8518 80.9912L93.2752 88.3592H76.9582ZM62.1924 88.3592L58.8216 75.771C63.9516 77.2682 69.1708 78.441 74.4482 79.2824L76.5235 88.3592H62.1924ZM42.4705 69.3618C44.3924 70.3931 49.8087 73.082 58.34 75.6304L61.7492 88.3592H48.3214L42.4705 69.3618ZM35.8781 47.9439C35.8995 47.924 35.9223 47.9054 35.9463 47.8885C36.7986 48.1016 42.7901 49.5505 51.803 51.2124L58.1952 75.1318C49.178 72.4173 43.7063 69.5621 42.2745 68.761L35.8781 47.9439ZM24.5384 11.1338C26.0172 11.317 32.3709 12.0755 41.5415 12.9108L46.2291 30.4849C40.5018 29.4418 34.8322 28.1033 29.2431 26.4749L24.5384 11.1338ZM143.147 30.438L145.452 51.3786C144.716 51.6002 143.97 51.8119 143.215 52.0136L141.229 30.8301C141.838 30.7107 142.448 30.5957 143.057 30.4678C143.089 30.4663 143.12 30.456 143.147 30.438ZM142.797 52.1372C139.938 52.9 136.98 53.5349 133.946 54.0633L131.909 32.4878C134.844 32.036 137.811 31.5204 140.811 30.9409L142.797 52.1372ZM133.529 54.14C129.727 54.7878 125.82 55.2608 121.848 55.5932L119.321 34.09C123.298 33.6895 127.354 33.1781 131.487 32.5559L133.529 54.14ZM103.763 56.1685C98.2227 56.1003 92.6828 55.8318 87.3561 55.4227L83.427 35.1213C88.7879 35.3344 94.528 35.4026 100.571 35.2491L103.763 56.1685ZM101.001 35.2364C106.724 35.083 112.712 34.7293 118.899 34.1156L121.43 55.6145C115.746 56.0705 109.95 56.2324 104.189 56.1727L101.001 35.2364ZM86.9171 55.3886C80.6401 54.9028 74.6016 54.2295 69.0192 53.4838L64.4722 33.6724C69.9098 34.2903 76.1315 34.8145 82.9796 35.1L86.9171 55.3886ZM68.5461 53.4156C62.4353 52.5889 56.8741 51.6727 52.1397 50.8119L46.8342 31.0261C51.3982 31.8784 56.7207 32.7307 62.6739 33.4551L64.0248 33.6128L68.5461 53.4156ZM68.6569 53.9014L74.3587 78.8179C69.0713 77.9696 63.8434 76.7854 58.7065 75.2724L52.2675 51.2849C57.0105 52.1627 62.5716 53.0789 68.6569 53.9057V53.9014ZM69.1086 53.9611C70.9283 54.204 72.7948 54.4426 74.6996 54.6642C78.5349 55.1116 82.66 55.5165 86.9938 55.8574L91.7666 80.5395C86.0785 80.3242 80.4081 79.7735 74.7849 78.8904L69.1086 53.9611ZM87.4328 55.8915C92.6658 56.2793 98.1843 56.5477 103.818 56.6074L107.444 80.3563C104.423 80.5523 101.21 80.6589 97.7923 80.6589C95.8874 80.6589 94.0252 80.6205 92.2056 80.5566L87.4328 55.8915ZM104.253 56.6117C104.905 56.6117 105.557 56.6117 106.213 56.6117C111.271 56.6117 116.402 56.4327 121.473 56.0236L124.077 78.1531C118.736 79.2478 113.325 79.9697 107.883 80.3137L104.253 56.6117ZM121.899 55.998C125.845 55.6656 129.753 55.1926 133.567 54.5449L135.502 74.9698C131.909 76.2543 128.233 77.2923 124.499 78.0764L121.899 55.998ZM119.27 33.6511L117.02 14.5301C121.464 14.1381 125.705 13.6097 129.629 12.9236L131.462 32.1085C127.32 32.7449 123.256 33.2605 119.27 33.6554V33.6511ZM118.844 33.6895C112.643 34.2989 106.648 34.6525 100.924 34.806L97.967 15.4378C104.359 15.3483 110.662 15.0756 116.594 14.5855L118.844 33.6895ZM100.494 34.8187C94.4428 34.9722 88.6984 34.904 83.3333 34.6866L79.579 15.2759C85.5194 15.4506 91.5706 15.523 97.5366 15.4463L100.494 34.8187ZM82.8816 34.6653C76.0207 34.3756 69.7947 33.8471 64.3572 33.225L60.0489 14.3469C66.0745 14.7347 72.5306 15.0628 79.1273 15.2631L82.8816 34.6653ZM63.9097 33.1738L62.725 33.0332C56.6866 32.3045 51.3002 31.4352 46.7021 30.5701L41.9804 12.9491C47.0942 13.4136 53.107 13.8994 59.6014 14.3171L63.9097 33.1738ZM46.3569 30.9366L51.6624 50.7309C42.1637 48.988 36.1253 47.4922 35.9292 47.4411C35.8949 47.433 35.859 47.4335 35.8249 47.4424C35.7907 47.4513 35.7593 47.4684 35.7332 47.4922L29.4093 26.9564C30.9306 27.4209 36.9861 29.1638 46.3697 30.9409L46.3569 30.9366ZM92.2865 80.9912C94.0792 81.0566 95.9144 81.0893 97.7923 81.0893C101.231 81.0893 104.466 80.9785 107.508 80.7824L108.663 88.3592H93.7098L92.2865 80.9912ZM107.934 80.7526C113.376 80.4069 118.787 79.6836 124.128 78.5878L125.274 88.3592H109.081L107.934 80.7526ZM124.554 78.4983C128.285 77.7177 131.958 76.684 135.548 75.4045L136.763 88.3592H125.705L124.554 78.4983ZM135.962 75.2554C138.954 74.1847 141.846 72.8528 144.604 71.2752L146.206 88.3209H137.193L135.962 75.2554ZM135.923 74.8292L133.997 54.4852C137.023 53.9568 139.963 53.3176 142.848 52.559L144.553 70.815C141.8 72.408 138.909 73.7501 135.915 74.825L135.923 74.8292ZM143.266 52.4525C144.019 52.248 144.766 52.0349 145.507 51.8133L147.404 69.0081C147.369 68.9965 147.332 68.9939 147.296 69.0006C147.261 69.0074 147.227 69.0231 147.199 69.0465C146.49 69.6042 145.744 70.1139 144.966 70.5721L143.266 52.4525ZM139.963 1.49444L143.112 30.0886C143.072 30.0665 143.026 30.059 142.98 30.0673C142.384 30.1908 141.791 30.3059 141.199 30.421L140.803 26.1851C140.796 26.1289 140.768 26.0775 140.725 26.0417C140.681 26.0059 140.625 25.9885 140.568 25.9933C140.512 25.9998 140.461 26.0279 140.425 26.0716C140.389 26.1154 140.372 26.1714 140.377 26.2277L140.777 30.4891C137.783 31.0744 134.815 31.5929 131.875 32.0446L130.06 12.8426C133.648 12.2282 137.19 11.3639 140.658 10.2559C140.714 10.2378 140.761 10.198 140.789 10.1453C140.816 10.0926 140.821 10.0312 140.803 9.97466C140.785 9.91815 140.745 9.87114 140.692 9.84397C140.639 9.8168 140.578 9.8117 140.522 9.82978C137.085 10.9249 133.577 11.7792 130.021 12.3866L129.033 1.96319C129.03 1.93521 129.022 1.90806 129.008 1.88328C128.995 1.8585 128.977 1.83658 128.955 1.81877C128.934 1.80097 128.908 1.78761 128.882 1.77949C128.855 1.77137 128.826 1.76863 128.798 1.77143C128.77 1.77423 128.743 1.78251 128.718 1.7958C128.694 1.80909 128.672 1.82714 128.654 1.84891C128.636 1.87067 128.623 1.89573 128.615 1.92265C128.607 1.94957 128.604 1.97783 128.607 2.00581L129.591 12.5059C125.662 13.1963 121.422 13.7247 116.973 14.1168L115.486 1.49444H139.963ZM116.547 14.1509C110.606 14.658 104.308 14.9307 97.9031 15.0031L95.8363 1.47313H115.055L116.547 14.1509ZM95.4144 1.49017C95.4144 1.49017 95.4144 1.51575 95.4144 1.52853L97.4769 15.0287C91.5109 15.1054 85.4469 15.0287 79.498 14.854L76.9156 1.49017H95.4144ZM79.0463 14.8412C72.4411 14.6367 65.9808 14.3085 59.9466 13.9207L57.1085 1.49017H76.4894L79.0463 14.8412ZM56.6823 1.49017C56.6802 1.50858 56.6802 1.52717 56.6823 1.54557L59.4991 13.9037C52.992 13.4776 46.9919 12.996 41.8569 12.5273L39.1296 2.35098C39.1226 2.32382 39.1104 2.29829 39.0935 2.27587C39.0767 2.25344 39.0556 2.23456 39.0314 2.22031C39.0073 2.20606 38.9806 2.19671 38.9528 2.19281C38.925 2.18891 38.8968 2.19053 38.8696 2.19757C38.8152 2.21347 38.7692 2.24998 38.7413 2.29934C38.7134 2.3487 38.706 2.40699 38.7205 2.46178L41.4052 12.4889C31.8468 11.6111 25.3865 10.8227 24.385 10.6991L21.5512 1.50296L56.6823 1.49017ZM23.7757 22.8953C24.9859 19.5245 24.9561 15.7361 24.7558 13.3199L28.8723 26.688C28.8425 27.2036 28.5144 31.8017 25.8893 34.3585L23.7757 22.8953ZM25.9618 34.8528C28.2203 32.8287 28.9448 29.4536 29.1919 27.732L35.3752 47.7948C33.4296 49.3241 31.2776 50.5708 28.9831 51.498L25.9618 34.8528ZM29.0811 51.9241C31.3822 50.9943 33.5445 49.7525 35.5073 48.2337L41.7546 68.5096C41.7147 68.517 41.6769 68.533 41.6438 68.5564C41.6012 68.5948 38.7418 70.9343 32.9505 73.1076L29.0811 51.9241ZM33.0229 73.5295C38.2901 71.565 41.1921 69.4428 41.7929 68.9783L41.9165 69.0465L47.8825 88.3422H35.746L33.0229 73.5295ZM146.624 88.3592L145 71.0536C145.849 70.5601 146.664 70.0091 147.438 69.4044L149.526 88.3592H146.624Z" fill="#263238"/>
<path d="M140.147 91.0367C139.807 91.0367 139.482 90.902 139.243 90.6623C139.003 90.4225 138.868 90.0974 138.868 89.7583V2.55685H22.5569V89.7583C22.5569 90.0974 22.4222 90.4225 22.1824 90.6623C21.9427 90.902 21.6175 91.0367 21.2784 91.0367C20.9394 91.0367 20.6142 90.902 20.3744 90.6623C20.1347 90.4225 20 90.0974 20 89.7583V1.27843C20 0.939367 20.1347 0.614199 20.3744 0.374448C20.6142 0.134696 20.9394 0 21.2784 0H140.147C140.486 0 140.811 0.134696 141.05 0.374448C141.29 0.614199 141.425 0.939367 141.425 1.27843V89.7583C141.425 90.0974 141.29 90.4225 141.05 90.6623C140.811 90.902 140.486 91.0367 140.147 91.0367Z" fill="#4FCA77"/>
<g opacity="0.5">
<path opacity="0.5" d="M141.147 91.0367C140.807 91.0367 140.482 90.902 140.243 90.6623C140.003 90.4225 139.868 90.0974 139.868 89.7583V2.55685H23.5569V89.7583C23.5569 90.0974 23.4222 90.4225 23.1824 90.6623C22.9427 90.902 22.6175 91.0367 22.2784 91.0367C21.9394 91.0367 21.6142 90.902 21.3744 90.6623C21.1347 90.4225 21 90.0974 21 89.7583V1.27843C21 0.939367 21.1347 0.614199 21.3744 0.374448C21.6142 0.134696 21.9394 0 22.2784 0H141.147C141.486 0 141.811 0.134696 142.05 0.374448C142.29 0.614199 142.425 0.939367 142.425 1.27843V89.7583C142.425 90.0974 142.29 90.4225 142.05 90.6623C141.811 90.902 141.486 91.0367 141.147 91.0367Z" fill="white"/>
</g>
<g opacity="0.6">
<path opacity="0.6" d="M146.912 51.6556C146.938 51.6291 146.957 51.5962 146.966 51.5603C146.975 51.5243 146.974 51.4866 146.963 51.4511C146.949 51.4053 146.919 51.3661 146.878 51.3403L141.338 1.2558C141.334 1.20343 141.31 1.15459 141.271 1.11905C141.233 1.0835 141.182 1.06386 141.129 1.06403H116.413L116.383 0.782783C116.38 0.754802 116.371 0.727753 116.357 0.703187C116.344 0.678621 116.325 0.657018 116.303 0.639606C116.281 0.622195 116.255 0.609316 116.228 0.60171C116.201 0.594105 116.173 0.591922 116.145 0.595279C116.117 0.598637 116.09 0.607473 116.065 0.621283C116.041 0.635093 116.019 0.653607 116.002 0.675766C115.984 0.697926 115.971 0.723298 115.964 0.750433C115.956 0.777569 115.954 0.805937 115.957 0.833918L115.987 1.06403H77.8048L77.7494 0.769999C77.738 0.71438 77.7054 0.665407 77.6584 0.633553C77.6114 0.601699 77.5538 0.589489 77.498 0.599538C77.4705 0.60513 77.4445 0.61607 77.4213 0.631732C77.3981 0.647394 77.3782 0.667471 77.3628 0.690819C77.3473 0.714168 77.3367 0.74033 77.3313 0.767808C77.326 0.795286 77.3262 0.823539 77.3318 0.850961L77.3744 1.06403H22.2785C22.245 1.06452 22.2122 1.07288 22.1825 1.08843C22.1529 1.10398 22.1274 1.12628 22.108 1.15352C22.0886 1.1802 22.0757 1.21109 22.0705 1.24369C22.0654 1.27628 22.068 1.30964 22.0782 1.34103L25.0356 10.9505C25.1166 11.3767 26.1393 17.0188 24.6095 22.0302L22.7046 11.611C22.6996 11.5831 22.6891 11.5564 22.6737 11.5324C22.6583 11.5085 22.6384 11.4878 22.6151 11.4716C22.5917 11.4554 22.5654 11.4439 22.5376 11.4379C22.5099 11.4318 22.4812 11.4313 22.4532 11.4363C22.4252 11.4414 22.3985 11.4519 22.3746 11.4672C22.3506 11.4826 22.33 11.5025 22.3137 11.5259C22.2975 11.5492 22.2861 11.5755 22.28 11.6033C22.2739 11.6311 22.2734 11.6598 22.2785 11.6878L24.3197 22.874C23.8688 24.1459 23.1933 25.3265 22.3253 26.3598C22.3055 26.3793 22.2897 26.4025 22.279 26.4281C22.2682 26.4537 22.2627 26.4812 22.2627 26.509C22.2627 26.5368 22.2682 26.5643 22.279 26.5899C22.2897 26.6155 22.3055 26.6387 22.3253 26.6581C22.3686 26.6947 22.4244 26.713 22.4809 26.709C22.5375 26.705 22.5902 26.6791 22.6279 26.6368C23.3821 25.7412 23.9943 24.7352 24.4433 23.6538L26.5101 34.6653C25.389 35.5922 23.9713 36.0839 22.5171 36.0503C22.4606 36.0503 22.4064 36.0728 22.3664 36.1127C22.3265 36.1527 22.304 36.2069 22.304 36.2634C22.304 36.3199 22.3265 36.3741 22.3664 36.414C22.4064 36.454 22.4606 36.4764 22.5171 36.4764C23.9874 36.5095 25.4253 36.0422 26.5953 35.1511L29.6124 51.6471C27.1769 52.6169 24.6101 53.2172 21.9972 53.4284C21.9692 53.4305 21.9419 53.4382 21.9168 53.4509C21.8918 53.4637 21.8695 53.4813 21.8513 53.5026C21.8331 53.524 21.8193 53.5488 21.8107 53.5756C21.8021 53.6023 21.7989 53.6305 21.8012 53.6585C21.8066 53.7146 21.8336 53.7665 21.8766 53.8031C21.9195 53.8396 21.975 53.8581 22.0313 53.8545C24.6617 53.6431 27.2465 53.0443 29.7019 52.0775L33.5712 73.244C29.7404 74.6193 25.773 75.5794 21.7373 76.1077C21.6814 76.1151 21.6307 76.1444 21.5963 76.1891C21.562 76.2338 21.5468 76.2904 21.554 76.3463C21.5565 76.3745 21.5649 76.4018 21.5785 76.4266C21.5921 76.4513 21.6107 76.473 21.6332 76.4902C21.6556 76.5075 21.6813 76.5198 21.7088 76.5266C21.7362 76.5334 21.7648 76.5344 21.7927 76.5295C25.8352 76.0004 29.8096 75.0404 33.6479 73.6659L36.3113 88.3592H22.2785C22.222 88.3592 22.1678 88.3817 22.1278 88.4217C22.0878 88.4616 22.0654 88.5158 22.0654 88.5723C22.0665 88.6285 22.0893 88.682 22.129 88.7218C22.1687 88.7615 22.2223 88.7843 22.2785 88.7854H150.786C150.816 88.7856 150.846 88.7792 150.873 88.7667C150.9 88.7542 150.924 88.7358 150.944 88.7129C150.964 88.6907 150.98 88.6645 150.989 88.6358C150.999 88.6071 151.002 88.5768 150.999 88.5467L146.912 51.6556ZM77.9582 88.3592L75.9042 79.3549C81.5164 80.2322 87.1754 80.7786 92.8518 80.9912L94.2752 88.3592H77.9582ZM63.1924 88.3592L59.8216 75.771C64.9516 77.2682 70.1708 78.441 75.4482 79.2824L77.5235 88.3592H63.1924ZM43.4705 69.3618C45.3924 70.3931 50.8087 73.082 59.34 75.6304L62.7492 88.3592H49.3214L43.4705 69.3618ZM36.8781 47.9439C36.8995 47.924 36.9223 47.9054 36.9463 47.8885C37.7986 48.1016 43.7901 49.5505 52.803 51.2124L59.1952 75.1318C50.178 72.4173 44.7063 69.5621 43.2745 68.761L36.8781 47.9439ZM25.5384 11.1338C27.0172 11.317 33.3709 12.0755 42.5415 12.9108L47.2291 30.4849C41.5018 29.4418 35.8322 28.1033 30.2431 26.4749L25.5384 11.1338ZM144.147 30.438L146.452 51.3786C145.716 51.6002 144.97 51.8119 144.215 52.0136L142.229 30.8301C142.838 30.7107 143.448 30.5957 144.057 30.4678C144.089 30.4663 144.12 30.456 144.147 30.438ZM143.797 52.1372C140.938 52.9 137.98 53.5349 134.946 54.0633L132.909 32.4878C135.844 32.036 138.811 31.5204 141.811 30.9409L143.797 52.1372ZM134.529 54.14C130.727 54.7878 126.82 55.2608 122.848 55.5932L120.321 34.09C124.298 33.6895 128.354 33.1781 132.487 32.5559L134.529 54.14ZM104.763 56.1685C99.2227 56.1003 93.6828 55.8318 88.3561 55.4227L84.427 35.1213C89.7879 35.3344 95.528 35.4026 101.571 35.2491L104.763 56.1685ZM102.001 35.2364C107.724 35.083 113.712 34.7293 119.899 34.1156L122.43 55.6145C116.746 56.0705 110.95 56.2324 105.189 56.1727L102.001 35.2364ZM87.9171 55.3886C81.6401 54.9028 75.6016 54.2295 70.0192 53.4838L65.4722 33.6724C70.9098 34.2903 77.1315 34.8145 83.9796 35.1L87.9171 55.3886ZM69.5461 53.4156C63.4353 52.5889 57.8741 51.6727 53.1397 50.8119L47.8342 31.0261C52.3982 31.8784 57.7207 32.7307 63.6739 33.4551L65.0248 33.6128L69.5461 53.4156ZM69.6569 53.9014L75.3587 78.8179C70.0713 77.9696 64.8434 76.7854 59.7065 75.2724L53.2675 51.2849C58.0105 52.1627 63.5716 53.0789 69.6569 53.9057V53.9014ZM70.1086 53.9611C71.9283 54.204 73.7948 54.4426 75.6996 54.6642C79.5349 55.1116 83.66 55.5165 87.9938 55.8574L92.7666 80.5395C87.0785 80.3242 81.4081 79.7735 75.7849 78.8904L70.1086 53.9611ZM88.4328 55.8915C93.6658 56.2793 99.1843 56.5477 104.818 56.6074L108.444 80.3563C105.423 80.5523 102.21 80.6589 98.7923 80.6589C96.8874 80.6589 95.0252 80.6205 93.2056 80.5566L88.4328 55.8915ZM105.253 56.6117C105.905 56.6117 106.557 56.6117 107.213 56.6117C112.271 56.6117 117.402 56.4327 122.473 56.0236L125.077 78.1531C119.736 79.2478 114.325 79.9697 108.883 80.3137L105.253 56.6117ZM122.899 55.998C126.845 55.6656 130.753 55.1926 134.567 54.5449L136.502 74.9698C132.909 76.2543 129.233 77.2923 125.499 78.0764L122.899 55.998ZM120.27 33.6511L118.02 14.5301C122.464 14.1381 126.705 13.6097 130.629 12.9236L132.462 32.1085C128.32 32.7449 124.256 33.2605 120.27 33.6554V33.6511ZM119.844 33.6895C113.643 34.2989 107.648 34.6525 101.924 34.806L98.967 15.4378C105.359 15.3483 111.662 15.0756 117.594 14.5855L119.844 33.6895ZM101.494 34.8187C95.4428 34.9722 89.6984 34.904 84.3333 34.6866L80.579 15.2759C86.5194 15.4506 92.5706 15.523 98.5366 15.4463L101.494 34.8187ZM83.8816 34.6653C77.0207 34.3756 70.7947 33.8471 65.3572 33.225L61.0489 14.3469C67.0745 14.7347 73.5306 15.0628 80.1273 15.2631L83.8816 34.6653ZM64.9097 33.1738L63.725 33.0332C57.6866 32.3045 52.3002 31.4352 47.7021 30.5701L42.9804 12.9491C48.0942 13.4136 54.107 13.8994 60.6014 14.3171L64.9097 33.1738ZM47.3569 30.9366L52.6624 50.7309C43.1637 48.988 37.1253 47.4922 36.9292 47.4411C36.8949 47.433 36.859 47.4335 36.8249 47.4424C36.7907 47.4513 36.7593 47.4684 36.7332 47.4922L30.4093 26.9564C31.9306 27.4209 37.9861 29.1638 47.3697 30.9409L47.3569 30.9366ZM93.2865 80.9912C95.0792 81.0566 96.9144 81.0893 98.7923 81.0893C102.231 81.0893 105.466 80.9785 108.508 80.7824L109.663 88.3592H94.7098L93.2865 80.9912ZM108.934 80.7526C114.376 80.4069 119.787 79.6836 125.128 78.5878L126.274 88.3592H110.081L108.934 80.7526ZM125.554 78.4983C129.285 77.7177 132.958 76.684 136.548 75.4045L137.763 88.3592H126.705L125.554 78.4983ZM136.962 75.2554C139.954 74.1847 142.846 72.8528 145.604 71.2752L147.206 88.3209H138.193L136.962 75.2554ZM136.923 74.8292L134.997 54.4852C138.023 53.9568 140.963 53.3176 143.848 52.559L145.553 70.815C142.8 72.408 139.909 73.7501 136.915 74.825L136.923 74.8292ZM144.266 52.4525C145.019 52.248 145.766 52.0349 146.507 51.8133L148.404 69.0081C148.369 68.9965 148.332 68.9939 148.296 69.0006C148.261 69.0074 148.227 69.0231 148.199 69.0465C147.49 69.6042 146.744 70.1139 145.966 70.5721L144.266 52.4525ZM140.963 1.49444L144.112 30.0886C144.072 30.0665 144.026 30.059 143.98 30.0673C143.384 30.1908 142.791 30.3059 142.199 30.421L141.803 26.1851C141.796 26.1289 141.768 26.0775 141.725 26.0417C141.681 26.0059 141.625 25.9885 141.568 25.9933C141.512 25.9998 141.461 26.0279 141.425 26.0716C141.389 26.1154 141.372 26.1714 141.377 26.2277L141.777 30.4891C138.783 31.0744 135.815 31.5929 132.875 32.0446L131.06 12.8426C134.648 12.2282 138.19 11.3639 141.658 10.2559C141.714 10.2378 141.761 10.198 141.789 10.1453C141.816 10.0926 141.821 10.0312 141.803 9.97466C141.785 9.91815 141.745 9.87114 141.692 9.84397C141.639 9.8168 141.578 9.8117 141.522 9.82978C138.085 10.9249 134.577 11.7792 131.021 12.3866L130.033 1.96319C130.03 1.93521 130.022 1.90806 130.008 1.88328C129.995 1.8585 129.977 1.83658 129.955 1.81877C129.934 1.80097 129.908 1.78761 129.882 1.77949C129.855 1.77137 129.826 1.76863 129.798 1.77143C129.77 1.77423 129.743 1.78251 129.718 1.7958C129.694 1.80909 129.672 1.82714 129.654 1.84891C129.636 1.87067 129.623 1.89573 129.615 1.92265C129.607 1.94957 129.604 1.97783 129.607 2.00581L130.591 12.5059C126.662 13.1963 122.422 13.7247 117.973 14.1168L116.486 1.49444H140.963ZM117.547 14.1509C111.606 14.658 105.308 14.9307 98.9031 15.0031L96.8363 1.47313H116.055L117.547 14.1509ZM96.4144 1.49017C96.4144 1.49017 96.4144 1.51575 96.4144 1.52853L98.4769 15.0287C92.5109 15.1054 86.4469 15.0287 80.498 14.854L77.9156 1.49017H96.4144ZM80.0463 14.8412C73.4411 14.6367 66.9808 14.3085 60.9466 13.9207L58.1085 1.49017H77.4894L80.0463 14.8412ZM57.6823 1.49017C57.6802 1.50858 57.6802 1.52717 57.6823 1.54557L60.4991 13.9037C53.992 13.4776 47.9919 12.996 42.8569 12.5273L40.1296 2.35098C40.1226 2.32382 40.1104 2.29829 40.0935 2.27587C40.0767 2.25344 40.0556 2.23456 40.0314 2.22031C40.0073 2.20606 39.9806 2.19671 39.9528 2.19281C39.925 2.18891 39.8968 2.19053 39.8696 2.19757C39.8152 2.21347 39.7692 2.24998 39.7413 2.29934C39.7134 2.3487 39.706 2.40699 39.7205 2.46178L42.4052 12.4889C32.8468 11.6111 26.3865 10.8227 25.385 10.6991L22.5512 1.50296L57.6823 1.49017ZM24.7757 22.8953C25.9859 19.5245 25.9561 15.7361 25.7558 13.3199L29.8723 26.688C29.8425 27.2036 29.5144 31.8017 26.8893 34.3585L24.7757 22.8953ZM26.9618 34.8528C29.2203 32.8287 29.9448 29.4536 30.1919 27.732L36.3752 47.7948C34.4296 49.3241 32.2776 50.5708 29.9831 51.498L26.9618 34.8528ZM30.0811 51.9241C32.3822 50.9943 34.5445 49.7525 36.5073 48.2337L42.7546 68.5096C42.7147 68.517 42.6769 68.533 42.6438 68.5564C42.6012 68.5948 39.7418 70.9343 33.9505 73.1076L30.0811 51.9241ZM34.0229 73.5295C39.2901 71.565 42.1921 69.4428 42.7929 68.9783L42.9165 69.0465L48.8825 88.3422H36.746L34.0229 73.5295ZM147.624 88.3592L146 71.0536C146.849 70.5601 147.664 70.0091 148.438 69.4044L150.526 88.3592H147.624Z" fill="white"/>
</g>
<path d="M151.897 113.196C160.677 113.196 167.794 109.088 167.794 104.019C167.794 98.9506 160.677 94.8418 151.897 94.8418C143.117 94.8418 136 98.9506 136 104.019C136 109.088 143.117 113.196 151.897 113.196Z" fill="#F5F5F5"/>
<path d="M144.961 61.4863C141.925 61.4863 140.301 61.7773 138.406 64.2033C136.633 66.4721 137.392 69.9755 137.313 72.8734C137.239 75.1625 136.946 77.4391 136.436 79.6719C136.436 82.1412 145.511 82.1412 145.511 79.6719L144.961 61.4863Z" fill="#4FCA77"/>
<path opacity="0.1" d="M144.961 61.4863C141.925 61.4863 140.301 61.7773 138.406 64.2033C136.633 66.4721 137.392 69.9755 137.313 72.8734C137.239 75.1625 136.946 77.4391 136.436 79.6719C136.436 82.1412 145.511 82.1412 145.511 79.6719L144.961 61.4863Z" fill="#2A2D34"/>
<path d="M145.409 76.2949C145.182 76.518 144.927 76.7109 144.65 76.869C142.723 77.9818 139.601 77.9818 137.675 76.869C137.442 76.7357 137.223 76.5789 137.022 76.4011C136.943 76.987 136.861 77.5178 136.782 77.9739C137.04 78.256 137.341 78.4949 137.675 78.6817C139.601 79.7944 142.723 79.7944 144.65 78.6817C144.949 78.5118 145.223 78.3014 145.464 78.0565L145.409 76.2949Z" fill="white"/>
<path opacity="0.2" d="M139.035 76.2935C138.993 77.9555 138.783 79.6089 138.406 81.2282C141.076 81.9163 145.511 81.3973 145.511 79.6554L145.236 70.5449H140.341C139.169 73.03 139.102 74.3118 139.035 76.2935Z" fill="#2A2D34"/>
<path d="M164.231 102.316C163.877 98.6596 163.756 97.5587 163.527 93.9648C163.421 92.278 163.374 91.1416 163.331 90.3395C163.158 87.1939 163.398 83.6158 163.555 80.997C163.752 77.7138 164.538 69.433 162.769 66.9362C159.548 65.4263 158.632 64.5062 157.842 63.7198C157.051 62.9334 155.412 60.9674 152.337 60.236C149.262 59.5047 147.489 60.6292 147.017 61.4825H144.98C144.98 61.4825 141.441 62.6621 140.45 69.8616C139.46 77.0611 140.321 79.4242 140.506 85.9238C140.718 93.3121 139.585 98.3175 139.585 102.568C139.585 104.491 140.635 106.127 143.254 107.456C147.615 109.665 156.147 109.657 160.496 107.456C163.119 106.13 164.251 104.239 164.251 102.312L164.231 102.316Z" fill="#4FCA77"/>
<path opacity="0.2" d="M160.799 80.8558C159.989 82.177 157.429 84.0919 154.673 84.139C151.916 84.1862 149.868 83.8717 149.6 84.2491C149.333 84.6266 152.809 85.354 153.863 85.4012C156.175 85.4956 159.572 85.4366 161.947 83.2622C164.322 81.0878 160.799 80.8558 160.799 80.8558ZM142.821 81.9568C141.123 80.8558 140.635 80.3604 140.034 78.418C140.085 79.3263 140.156 80.2306 140.226 81.194C141.339 82.6567 143.348 83.2347 144.072 83.1246C144.795 83.0145 143.631 82.4837 142.821 81.9568Z" fill="#2A2D34"/>
<path opacity="0.2" d="M163.335 90.3434C163.162 87.1978 163.402 83.6197 163.559 81.001C163.622 79.9511 163.744 78.3862 163.827 76.6758H158.774C159.619 78.0638 158.333 87.7562 158.333 87.7562C158.333 88.751 159.875 90.4417 163.335 90.3434Z" fill="#2A2D34"/>
<path d="M144.308 79.5111C144.269 79.4193 144.254 79.3192 144.265 79.2201C144.266 79.1848 144.275 79.1501 144.291 79.1187C144.308 79.0874 144.331 79.0602 144.359 79.0392L146.215 77.9147L146.384 77.8282C146.421 77.812 146.462 77.8057 146.502 77.8098C146.541 77.814 146.58 77.8284 146.612 77.8518L147.666 78.4612C147.74 78.5098 147.798 78.5797 147.831 78.6618C147.877 78.7534 147.901 78.8543 147.902 78.9567V87.5481C147.906 87.5859 147.901 87.624 147.889 87.6599C147.877 87.6958 147.857 87.7288 147.831 87.7565C147.808 87.7764 147.779 87.7874 147.749 87.7874C147.718 87.7874 147.689 87.7764 147.666 87.7565L146.538 87.0998C146.464 87.0513 146.406 86.9814 146.373 86.8993C146.327 86.8092 146.302 86.7095 146.302 86.6083V80.8204L145.276 81.422C145.248 81.4387 145.216 81.4455 145.185 81.4412C145.153 81.4369 145.124 81.4218 145.103 81.3984C145.031 81.3357 144.977 81.2559 144.945 81.1664L144.308 79.5111Z" fill="white"/>
<path d="M160.779 65.9297C158.259 67.3963 156.847 71.871 159.088 77.5213C159.611 79.0941 159.592 85.4049 159.481 86.5845C159.481 89.0578 168.56 89.0578 168.56 86.5845C168.56 86.5845 168.167 84.6736 167.837 81.7875C167.507 78.9014 168.23 75.3233 167.491 72.3782C166.862 69.846 165.588 68.3518 163.366 67.2273L160.779 65.9297Z" fill="#4FCA77"/>
<path opacity="0.1" d="M160.779 65.9297C158.259 67.3963 156.847 71.871 159.088 77.5213C159.611 79.0941 159.592 85.4049 159.481 86.5845C159.481 89.0578 168.56 89.0578 168.56 86.5845C168.56 86.5845 168.167 84.6736 167.837 81.7875C167.507 78.9014 168.23 75.3233 167.491 72.3782C166.862 69.846 165.588 68.3518 163.366 67.2273L160.779 65.9297Z" fill="#2A2D34"/>
<path d="M168.226 84.7551C168.152 84.2911 168.073 83.7564 167.994 83.1548C167.822 83.3012 167.638 83.4327 167.444 83.548C165.517 84.6607 162.395 84.6607 160.469 83.548C160.115 83.3492 159.799 83.0912 159.533 82.7852C159.533 83.43 159.533 84.0513 159.533 84.6057C159.799 84.9073 160.114 85.1624 160.465 85.3606C162.391 86.4734 165.513 86.4734 167.44 85.3606C167.728 85.1949 167.993 84.9912 168.226 84.7551Z" fill="white"/>
<path d="M165.62 74.7573C165.509 73.2199 165.356 71.1084 163.241 69.6182C161.404 68.3246 160.284 67.6522 159.203 66.9995C158.892 66.8147 158.585 66.6338 158.267 66.4372C157.292 65.7995 156.407 65.0338 155.636 64.1605C155.6 64.1247 155.551 64.1038 155.5 64.1019C155.449 64.1 155.399 64.1172 155.36 64.1502C155.321 64.1833 155.296 64.2297 155.29 64.2804C155.283 64.331 155.296 64.3823 155.326 64.424C156.123 65.3313 157.041 66.1251 158.054 66.7832L158.99 67.3494C160.068 67.9982 161.18 68.6666 163.005 69.9524C164.971 71.3325 165.104 73.2474 165.215 74.7888C165.215 75.0247 165.246 75.2488 165.27 75.4612C165.274 75.5112 165.298 75.5578 165.335 75.5919C165.372 75.626 165.42 75.6452 165.47 75.646H165.494C165.52 75.6435 165.546 75.6358 165.569 75.6234C165.593 75.611 165.613 75.5941 165.63 75.5736C165.647 75.5531 165.659 75.5295 165.667 75.5041C165.675 75.4788 165.677 75.4521 165.675 75.4258C165.651 75.2134 165.635 74.9893 165.62 74.7573ZM161.64 70.2394C159.769 68.993 158.628 68.3521 157.527 67.7269L156.584 67.1921C155.593 66.5787 154.687 65.8369 153.89 64.9863C153.873 64.963 153.852 64.9436 153.827 64.9293C153.802 64.915 153.774 64.9061 153.745 64.9033C153.717 64.9005 153.688 64.9037 153.66 64.9129C153.633 64.922 153.608 64.9369 153.587 64.9564C153.565 64.9759 153.549 64.9997 153.537 65.0262C153.526 65.0527 153.52 65.0812 153.521 65.11C153.521 65.1388 153.528 65.1672 153.54 65.1933C153.552 65.2195 153.57 65.2427 153.592 65.2615C154.414 66.1437 155.352 66.9109 156.379 67.5421L157.327 68.0808C158.424 68.702 159.552 69.339 161.416 70.5776C163.41 71.9027 163.598 73.8176 163.752 75.355C163.775 75.5909 163.799 75.815 163.827 76.0274C163.832 76.0764 163.856 76.1215 163.893 76.1541C163.93 76.1868 163.978 76.2046 164.027 76.2043H164.055C164.081 76.2009 164.107 76.1923 164.13 76.179C164.153 76.1656 164.173 76.1478 164.189 76.1266C164.205 76.1054 164.217 76.0811 164.223 76.0553C164.23 76.0295 164.231 76.0026 164.228 75.9763C164.2 75.7718 164.18 75.5477 164.157 75.3157C164.003 73.7783 163.795 71.6707 161.64 70.2394ZM145.024 63.555C144.564 63.555 144.072 63.5039 143.573 63.4646C142.678 63.3803 141.778 63.3449 140.879 63.3584C140.194 63.3769 139.513 63.4759 138.85 63.6533C138.705 63.8145 138.559 63.9915 138.41 64.1802L138.355 64.2588C139.163 63.9324 140.027 63.7642 140.899 63.7634C141.782 63.7481 142.666 63.7836 143.545 63.8696C144.06 63.905 144.564 63.9404 145.039 63.9561C145.759 64.017 146.483 63.9409 147.174 63.732L147.029 63.3388C146.381 63.5422 145.701 63.621 145.024 63.5707V63.555ZM144.984 62.226C144.611 62.2063 144.222 62.1749 143.824 62.1474C142.929 62.0669 142.03 62.0315 141.131 62.0412H140.938C140.63 62.1756 140.337 62.343 140.065 62.5406C140.423 62.4833 140.784 62.4505 141.147 62.4423C142.03 62.4288 142.914 62.4642 143.793 62.5484C144.186 62.5759 144.607 62.6074 144.996 62.6231C145.811 62.7152 146.636 62.6417 147.422 62.4069L147.277 62.0137C146.534 62.2352 145.756 62.3126 144.984 62.2417V62.226Z" fill="white"/>
<path d="M157.63 64.6602C157.744 64.4267 157.78 64.1626 157.732 63.9069C157.685 63.6513 157.557 63.4177 157.366 63.2407C156.02 61.7648 154.265 60.722 152.325 60.2446C149.239 59.5211 147.477 60.6378 147.005 61.491C146.058 62.765 146.022 65.8162 146.797 67.3104C147.65 68.9382 149.765 69.3078 151.181 68.8832C153.41 68.2029 154.952 66.3824 155.817 65.7612C156.682 65.1399 157.437 65.0298 157.63 64.6602Z" fill="white"/>
<path opacity="0.3" d="M157.366 63.2409C156.02 61.7649 154.265 60.7221 152.325 60.2447C151.158 59.9237 149.926 59.9237 148.759 60.2447C148.261 60.8139 147.87 61.4678 147.603 62.1753C147.603 62.1753 155.715 64.8215 156.537 64.4322C156.95 64.2273 157.326 63.9549 157.649 63.6262C157.58 63.4811 157.484 63.3503 157.366 63.2409Z" fill="#2A2D34"/>
<path d="M156.529 64.4398C155.9 64.6857 155.312 65.0236 154.783 65.4425C153.82 66.2682 152.919 67.2826 151.244 67.8646C148.885 68.6903 147.348 67.1607 147.143 65.584C146.939 64.0073 147.202 61.534 148.85 61.0465C150.816 60.4685 152.88 61.0268 154.292 61.8329C155.64 62.6035 157.394 64.0623 156.529 64.4398Z" fill="#263238"/>
<path d="M16.6647 113.204C25.4444 113.204 32.5618 109.095 32.5618 104.027C32.5618 98.9584 25.4444 94.8496 16.6647 94.8496C7.88496 94.8496 0.767578 98.9584 0.767578 104.027C0.767578 109.095 7.88496 113.204 16.6647 113.204Z" fill="#F5F5F5"/>
<path d="M23.5998 61.4941C26.6353 61.4941 28.2592 61.7851 30.1545 64.2112C31.9278 66.4799 31.1689 69.9833 31.2476 72.8812C31.321 75.1703 31.6146 77.4469 32.1244 79.6797C32.1244 82.149 23.0493 82.149 23.0493 79.6797L23.5998 61.4941Z" fill="#EBEBEB"/>
<path d="M23.1517 76.3027C23.3791 76.5258 23.6341 76.7187 23.9106 76.8768C25.8373 77.9896 28.9593 77.9896 30.886 76.8768C31.119 76.7435 31.3377 76.5867 31.5387 76.4089C31.6173 76.9948 31.6999 77.5256 31.7786 77.9817C31.5207 78.2638 31.2194 78.5027 30.886 78.6895C28.9593 79.8022 25.8373 79.8022 23.9106 78.6895C23.6118 78.5196 23.3379 78.3092 23.0967 78.0643L23.1517 76.3027Z" fill="#4FCA77"/>
<path opacity="0.2" d="M29.5253 76.3033C29.5673 77.9652 29.7781 79.6186 30.1545 81.238C27.4846 81.9261 23.0493 81.407 23.0493 79.6651L23.3246 70.5547H28.2199C29.3916 73.0397 29.4585 74.3216 29.5253 76.3033Z" fill="#2A2D34"/>
<path d="M4.32923 102.324C4.68311 98.6674 4.805 97.5665 5.03306 93.9726C5.13922 92.2858 5.18641 91.1494 5.22966 90.3473C5.40267 87.2017 5.16282 83.6236 5.00554 81.0048C4.80894 77.7216 4.02253 69.4408 5.79194 66.944C9.01225 65.4341 9.92841 64.514 10.7187 63.7276C11.5091 62.9412 13.1487 60.9752 16.2236 60.2438C19.2984 59.5125 21.0717 60.637 21.5436 61.4903H23.5803C23.5803 61.4903 27.1192 62.6699 28.11 69.8694C29.1009 77.0689 28.2398 79.432 28.055 85.9317C27.8426 93.3199 28.9751 98.3254 28.9751 102.576C28.9751 104.499 27.9252 106.134 25.3065 107.463C20.9459 109.673 12.4134 109.665 8.06464 107.463C5.44199 106.138 4.30957 104.247 4.30957 102.32L4.32923 102.324Z" fill="white"/>
<path d="M18.1264 60.3382C20.0453 60.3382 21.0125 61.1639 21.2721 61.6514L21.3664 61.8166H23.529C23.9222 61.9857 26.9184 63.472 27.8031 69.9165C28.4834 74.8591 28.2828 77.4857 28.0351 80.8121C27.925 82.267 27.7992 83.9145 27.7441 85.9238C27.6707 89.6329 27.8493 93.3428 28.2789 97.0277C28.4873 99.096 28.6721 100.885 28.6721 102.576C28.6721 104.506 27.5633 105.969 25.1805 107.176C23.1476 108.206 20.0689 108.796 16.7031 108.796C13.3373 108.796 10.2624 108.206 8.22958 107.18C5.92935 106.001 4.65931 104.298 4.65145 102.34L4.76548 101.16C5.03285 98.4079 5.15868 97.1693 5.35135 93.9962C5.42605 92.8166 5.47324 91.9319 5.50863 91.2123C5.50863 90.8938 5.53615 90.6146 5.55188 90.3669C5.65239 87.4048 5.58806 84.4395 5.35921 81.4845L5.32775 80.993C5.32775 80.6509 5.28057 80.2538 5.24911 79.8134C5.0014 76.1684 4.54528 69.4211 6.01192 67.2034C9.21651 65.6896 10.1366 64.7695 10.9505 63.9595L11.21 63.6922C12.5541 62.1478 14.3374 61.0504 16.3217 60.5466C16.9153 60.4027 17.5235 60.3275 18.1343 60.3224L18.1264 60.3382ZM18.1343 60C17.4937 60.011 16.8565 60.0954 16.2351 60.2517C13.1446 60.9751 11.5167 62.9451 10.7303 63.7354C9.94393 64.5257 9.02384 65.4419 5.80353 66.9518C4.03019 69.4486 4.81659 77.7294 5.01713 81.0127C5.17441 83.6314 5.41033 87.2095 5.24125 90.3551C5.198 91.1415 5.15081 92.2936 5.04465 93.9804C4.81659 97.5743 4.6947 98.6753 4.34082 102.332C4.34082 104.259 5.47324 106.15 8.09589 107.475C10.2703 108.572 13.4945 109.127 16.7149 109.127C19.9352 109.127 23.1594 108.576 25.3377 107.471C27.9565 106.142 29.0063 104.506 29.0063 102.584C29.0063 98.3332 27.8739 93.3277 28.0862 85.9395C28.271 79.4399 29.1321 77.0728 28.1413 69.8772C27.1504 62.6816 23.6116 61.4981 23.6116 61.4981H21.563C21.1973 60.8375 20.0571 60.0197 18.1264 60.0197L18.1343 60Z" fill="#E0E0E0"/>
<path d="M6.61388 83.2699C8.97308 85.4443 12.3861 85.5033 14.6981 85.4089C15.7519 85.3617 19.2278 84.6225 18.9604 84.2568C18.693 83.8912 16.6484 84.1939 13.8881 84.1467C11.1278 84.0996 8.57202 82.1807 7.76203 80.8635C7.76203 80.8635 4.24288 81.0916 6.61388 83.2699ZM24.4888 83.148C25.2123 83.2581 27.2412 82.6801 28.3343 81.2174C28.4051 80.2541 28.4759 79.3497 28.527 78.4414C27.9254 80.3681 27.4378 80.8635 25.7392 81.9802C24.9292 82.4914 23.7063 83.0301 24.4927 83.148H24.4888Z" fill="#F5F5F5"/>
<path opacity="0.2" d="M5.22539 90.3513C5.3984 87.2057 5.15854 83.6275 5.00126 81.0088C4.93835 79.959 4.81646 78.394 4.73389 76.6836H9.78652C8.94113 78.0716 10.2269 87.764 10.2269 87.764C10.2269 88.7588 8.68555 90.4496 5.22539 90.3513Z" fill="#2A2D34"/>
<path d="M18.6458 82.6058C18.6025 82.5324 18.5871 82.4458 18.6025 82.362C18.6146 82.2597 18.6467 82.1609 18.6969 82.071L20.5607 78.8035C20.6039 78.7209 20.6629 78.6305 20.7297 78.5204C20.7834 78.4219 20.8621 78.3392 20.9578 78.2805L22.0116 77.6711C22.0338 77.6515 22.0625 77.6406 22.0922 77.6406C22.1219 77.6406 22.1505 77.6515 22.1728 77.6711C22.1985 77.7005 22.218 77.7349 22.2302 77.772C22.2423 77.8092 22.2469 77.8484 22.2436 77.8873V86.4788C22.2421 86.5799 22.2179 86.6793 22.1728 86.7698C22.1431 86.8528 22.0863 86.9234 22.0116 86.9703L20.8791 87.623C20.8559 87.6422 20.8267 87.6527 20.7966 87.6527C20.7664 87.6527 20.7372 87.6422 20.714 87.623C20.6645 87.5639 20.6404 87.4875 20.6472 87.4107V81.5992L19.617 83.3882C19.5836 83.4646 19.5234 83.5261 19.4479 83.5612C19.4201 83.574 19.3884 83.5759 19.3593 83.5664C19.3301 83.557 19.3056 83.5368 19.2906 83.5101L18.6458 82.6058Z" fill="#4FCA77"/>
<path d="M7.78144 65.9375C10.3019 67.4041 11.7135 71.8788 9.47221 77.5291C8.94925 79.1019 8.96891 85.4127 9.07901 86.5923C9.07901 89.0656 0 89.0656 0 86.5923C0 86.5923 0.393201 84.6814 0.72349 81.7953C1.05378 78.9092 0.330289 75.3311 1.06951 72.386C1.69863 69.8538 2.9726 68.3596 5.19418 67.2351L7.78144 65.9375Z" fill="#EBEBEB"/>
<path d="M0.333984 84.7629C0.408693 84.2989 0.487333 83.7642 0.565973 83.1626C0.737985 83.309 0.922141 83.4406 1.11645 83.5558C3.04314 84.6685 6.16515 84.6685 8.09184 83.5558C8.44517 83.357 8.76171 83.099 9.02766 82.793C9.02766 83.4378 9.02766 84.0591 9.02766 84.6135C8.76104 84.9151 8.44612 85.1702 8.09577 85.3684C6.16909 86.4812 3.04707 86.4812 1.12039 85.3684C0.832327 85.2027 0.567829 84.999 0.333984 84.7629Z" fill="#4FCA77"/>
<path d="M2.88631 75.4294C2.8836 75.4557 2.88613 75.4824 2.89378 75.5077C2.90142 75.5331 2.91401 75.5567 2.93083 75.5772C2.94765 75.5977 2.96836 75.6146 2.99176 75.627C3.01516 75.6394 3.0408 75.6471 3.06718 75.6496H3.09077C3.14108 75.6488 3.18935 75.6296 3.22635 75.5955C3.26334 75.5614 3.28647 75.5148 3.29131 75.4648C3.3149 75.2524 3.33062 75.0283 3.34635 74.7924C3.45645 73.251 3.59407 71.3362 5.55614 69.956C7.38059 68.6702 8.49335 67.99 9.57072 67.353L10.5065 66.7868C11.5196 66.1287 12.4377 65.3349 13.2354 64.4276C13.2648 64.3859 13.2775 64.3346 13.2711 64.284C13.2646 64.2333 13.2394 64.1869 13.2005 64.1539C13.1615 64.1208 13.1116 64.1036 13.0606 64.1055C13.0096 64.1074 12.9611 64.1283 12.9247 64.1642C12.1538 65.0374 11.269 65.8031 10.2942 66.4408C9.97572 66.6374 9.66902 66.834 9.35839 67.0031C8.27709 67.6558 7.15647 68.3282 5.32022 69.6218C3.2048 71.112 3.05145 73.2235 2.94135 74.7609C2.92563 74.9969 2.9099 75.221 2.88631 75.4294ZM4.40406 75.3193C4.38047 75.5513 4.36081 75.7754 4.33329 75.9799C4.32941 76.0062 4.33084 76.0331 4.33747 76.0589C4.34411 76.0847 4.35582 76.109 4.37193 76.1302C4.38804 76.1514 4.40822 76.1692 4.43129 76.1826C4.45436 76.1959 4.47986 76.2045 4.50629 76.2079H4.53382C4.58316 76.2083 4.63089 76.1904 4.66789 76.1578C4.70488 76.1251 4.72855 76.08 4.73435 76.031C4.76188 75.8186 4.78547 75.5945 4.80906 75.3586C4.96241 73.8212 5.15114 71.9063 7.14467 70.5812C9.00845 69.3426 10.1369 68.7056 11.234 68.0844L12.1816 67.5457C13.2093 66.9145 14.147 66.1473 14.9694 65.2651C14.9912 65.2463 15.0088 65.2231 15.021 65.197C15.0332 65.1709 15.0397 65.1425 15.0402 65.1137C15.0406 65.0849 15.035 65.0563 15.0236 65.0298C15.0123 65.0033 14.9954 64.9795 14.9742 64.96C14.953 64.9405 14.928 64.9257 14.9006 64.9165C14.8733 64.9074 14.8444 64.9041 14.8157 64.9069C14.787 64.9097 14.7593 64.9186 14.7342 64.9329C14.7092 64.9472 14.6875 64.9666 14.6705 64.9899C13.8738 65.8406 12.9681 66.5823 11.9771 67.1958L11.0334 67.7226C9.93247 68.3478 8.79219 68.9888 6.92055 70.2352C4.76581 71.6782 4.55741 73.7858 4.40406 75.3193ZM21.5358 63.3974L21.3903 63.7906C22.0815 63.9996 22.806 64.0756 23.5254 64.0148C24.0012 64.0148 24.5045 63.9636 25.0196 63.9283C25.8989 63.8423 26.7824 63.8068 27.6658 63.8221C28.5377 63.8228 29.4014 63.991 30.2098 64.3175L30.1548 64.2389C30.0054 64.0501 29.8599 63.8732 29.7144 63.712C29.052 63.5345 28.371 63.4356 27.6855 63.4171C26.7864 63.4036 25.8873 63.439 24.9921 63.5233C24.4927 63.5626 24.0012 63.598 23.5411 63.6137C22.865 63.669 22.1846 63.5956 21.5358 63.3974ZM21.2842 62.0802L21.1387 62.4734C21.9245 62.7082 22.7497 62.7818 23.5647 62.6897C23.9579 62.6897 24.3511 62.6425 24.7679 62.615C25.6474 62.5308 26.5308 62.4953 27.4142 62.5088C27.7764 62.517 28.1377 62.5499 28.4955 62.6071C28.2234 62.4096 27.9307 62.2421 27.6226 62.1077H27.4299C26.5309 62.098 25.6319 62.1335 24.7365 62.2139C24.3433 62.2414 23.9501 62.2729 23.5569 62.2925C22.7915 62.3596 22.0203 62.2809 21.2842 62.0605V62.0802Z" fill="#4FCA77"/>
<path d="M10.9309 64.668C10.8166 64.4345 10.7805 64.1704 10.828 63.9147C10.8754 63.6591 11.0038 63.4255 11.1943 63.2486C12.5407 61.7726 14.2952 60.7298 16.2351 60.2524C19.3218 59.5289 21.0833 60.6456 21.5552 61.4988C22.5028 62.7728 22.5382 65.824 21.7635 67.3182C20.9103 68.946 18.7949 69.3157 17.3794 68.891C15.1499 68.2108 13.6086 66.3902 12.7435 65.769C11.8785 65.1477 11.1235 65.0376 10.9309 64.668Z" fill="#4FCA77"/>
<path opacity="0.3" d="M11.1943 63.2487C12.5407 61.7727 14.2952 60.7299 16.2351 60.2525C17.4022 59.9315 18.6343 59.9315 19.8014 60.2525C20.2985 60.8244 20.6887 61.481 20.9535 62.191C20.9535 62.191 12.8418 64.8372 12.02 64.4479C11.6068 64.243 11.2307 63.9706 10.9072 63.6419C10.9768 63.4936 11.0743 63.3601 11.1943 63.2487Z" fill="#2A2D34"/>
<path d="M12.0317 64.4477C12.6601 64.6936 13.2485 65.0315 13.7775 65.4504C14.7409 66.2761 15.6413 67.2906 17.3164 67.8725C19.6756 68.6982 21.213 67.1687 21.4174 65.5919C21.6219 64.0152 21.3467 61.5419 19.6952 61.0387C17.7292 60.4606 15.6649 61.019 14.2533 61.8251C12.9204 62.6115 11.1667 64.0702 12.0317 64.4477Z" fill="#263238"/>
</svg>
