<svg width="192" height="129" viewBox="0 0 192 129" fill="none" xmlns="http://www.w3.org/2000/svg">
<path d="M96 128.526C149.019 128.526 192 104.148 192 74.0755C192 44.0033 149.019 19.625 96 19.625C42.9807 19.625 0 44.0033 0 74.0755C0 104.148 42.9807 128.526 96 128.526Z" fill="#F5F5F5"/>
<path d="M183.448 47.7228C183.448 47.0111 182.976 46.2994 182.036 45.7568L104.182 0.813926C102.303 -0.271309 99.2553 -0.271309 97.3719 0.813926L9.95942 51.2891C9.01967 51.8317 8.55176 52.5434 8.55176 53.2551V60.6316C8.55176 61.3433 9.01967 62.055 9.95942 62.5976L87.8132 107.54C89.6966 108.626 92.7439 108.626 94.6234 107.54L182.036 57.0652C182.976 56.5226 183.448 55.8109 183.448 55.0992V47.7228Z" fill="#37474F"/>
<path d="M91.2065 4.38086L9.95942 51.2897C9.01967 51.8323 8.55176 52.544 8.55176 53.2557V60.6322C8.55176 61.3439 9.01967 62.0556 9.95942 62.5982L87.8132 107.541C88.8605 108.098 90.0325 108.378 91.2183 108.355L91.2065 4.38086Z" fill="#263238"/>
<path d="M33.7009 68.9286L21.0752 61.6387L25.133 71.3586L37.7626 78.6525L33.7009 68.9286ZM70.6618 90.2716L58.0361 82.9816L62.0939 92.7015L74.7235 99.9954L70.6618 90.2716ZM46.4563 76.3011L39.4298 72.2433L43.4876 81.9632L50.5181 86.025L46.4563 76.3011Z" fill="#2A2D34"/>
<path d="M94.6116 100.164L182.036 49.6888C182.976 49.1462 183.448 48.4345 183.448 47.7228C183.448 47.0111 182.976 46.2994 182.036 45.7568L104.182 0.813926C102.303 -0.271309 99.2553 -0.271309 97.3719 0.813926L9.95942 51.2891C9.01967 51.8317 8.55176 52.5434 8.55176 53.2551C8.55176 53.9668 9.01967 54.6785 9.95942 55.2211L87.8132 100.164C89.6848 101.249 92.7321 101.249 94.6116 100.164Z" fill="#455A64"/>
<path opacity="0.3" d="M182.036 49.6895L94.6118 100.165C92.7323 101.25 89.681 101.25 87.8015 100.165L9.94775 55.2218L87.8015 98.8671C89.681 99.9523 92.7323 99.9523 94.6118 98.8671L182.036 49.6895Z" fill="#FAFAFA"/>
<path d="M174.156 48.7567L172.693 49.5981L93.1842 95.4925C92.6566 95.7602 92.0733 95.8997 91.4817 95.8997C90.89 95.8997 90.3067 95.7602 89.7791 95.4925L19.3018 54.8159L17.8391 53.9705C16.8993 53.4239 16.8993 52.5471 17.8391 52.0045L98.8109 5.2529C99.3386 4.98521 99.9219 4.8457 100.514 4.8457C101.105 4.8457 101.688 4.98521 102.216 5.2529L174.172 46.7906C175.096 47.3333 175.096 48.214 174.156 48.7567Z" fill="#263238"/>
<path d="M172.693 49.5985L93.1842 95.4929C92.6566 95.7606 92.0733 95.9001 91.4817 95.9001C90.89 95.9001 90.3067 95.7606 89.7791 95.4929L19.3018 54.8163L98.8109 8.91008C99.338 8.64055 99.9215 8.5 100.513 8.5C101.105 8.5 101.689 8.64055 102.216 8.91008L172.693 49.5985Z" fill="#4FCA77"/>
<path opacity="0.3" d="M172.693 49.5985L93.1842 95.4929C92.6566 95.7606 92.0733 95.9001 91.4817 95.9001C90.89 95.9001 90.3067 95.7606 89.7791 95.4929L19.3018 54.8163L98.8109 8.91008C99.338 8.64055 99.9215 8.5 100.513 8.5C101.105 8.5 101.689 8.64055 102.216 8.91008L172.693 49.5985Z" fill="white"/>
<path opacity="0.2" d="M110.823 13.8809L29.6113 60.7661L39.925 66.7192L121.133 19.83L110.823 13.8809ZM131.446 25.787L50.2386 72.688L60.5444 78.6371L141.76 31.7361L131.446 25.787ZM152.07 37.6931L70.862 84.5823L81.1678 90.5314L162.383 43.6422L152.07 37.6931Z" fill="white"/>
<path d="M87.9468 90.1971C87.8955 90.198 87.8451 90.1844 87.8013 90.1578L30.5591 57.1093C30.5136 57.084 30.4757 57.0469 30.4495 57.0019C30.4232 56.957 30.4094 56.9058 30.4097 56.8537C30.409 56.8015 30.4226 56.7502 30.4489 56.7052C30.4752 56.6601 30.5133 56.6231 30.5591 56.5981L103.903 14.2543C103.947 14.2272 103.998 14.2129 104.05 14.2129C104.102 14.2129 104.153 14.2272 104.198 14.2543L161.44 47.3029C161.484 47.329 161.52 47.3661 161.546 47.4105C161.571 47.455 161.584 47.5053 161.584 47.5565C161.584 47.6076 161.571 47.6579 161.546 47.7024C161.52 47.7469 161.484 47.784 161.44 47.8101L88.0962 90.1578C88.0508 90.184 87.9992 90.1975 87.9468 90.1971ZM31.2944 56.8537L87.9468 89.5602L160.689 47.5584L104.048 14.8481L31.2944 56.8537Z" fill="white"/>
<path d="M112.534 76.0019C112.481 76.0023 112.43 75.9887 112.384 75.9625C109.062 74.0437 107.233 71.4761 107.233 68.7276C107.233 65.9792 109.062 63.4155 112.384 61.4967C119.132 57.6001 130.106 57.6001 136.853 61.4967C136.912 61.5396 136.953 61.6029 136.968 61.6744C136.983 61.7458 136.971 61.8203 136.935 61.8834C136.898 61.9465 136.839 61.9938 136.77 62.016C136.7 62.0383 136.625 62.034 136.558 62.0039C129.976 58.2056 119.257 58.2056 112.679 62.0039C109.534 63.8126 107.823 66.2033 107.823 68.7276C107.823 71.252 109.545 73.6427 112.679 75.4514C112.735 75.4837 112.779 75.5337 112.804 75.5935C112.829 75.6533 112.834 75.7197 112.817 75.7823C112.801 75.845 112.764 75.9004 112.713 75.9401C112.661 75.9798 112.599 76.0015 112.534 76.0019Z" fill="white"/>
<path d="M82.159 54.3959C81.2704 54.3959 80.3739 54.3527 79.4813 54.274C79.4034 54.266 79.3317 54.2278 79.2817 54.1675C79.2317 54.1072 79.2074 54.0297 79.214 53.9516C79.2209 53.874 79.2584 53.8023 79.318 53.7522C79.3777 53.7021 79.4548 53.6777 79.5324 53.6842C84.8682 54.1718 90.3258 53.1495 94.1281 50.9554C97.8595 48.8007 99.6014 45.7376 98.7875 42.7611C98.7772 42.7236 98.7743 42.6845 98.7791 42.646C98.7839 42.6075 98.7962 42.5702 98.8154 42.5365C98.8541 42.4683 98.9183 42.4182 98.9939 42.3974C99.0695 42.3765 99.1503 42.3865 99.2185 42.4253C99.2867 42.464 99.3368 42.5282 99.3576 42.6038C100.246 45.8556 98.4022 49.1703 94.423 51.4666C91.1555 53.35 86.7162 54.3959 82.159 54.3959Z" fill="white"/>
<path d="M104.048 17.0297C103.046 17.0487 102.055 16.8118 101.17 16.3416C101.105 16.3022 101.058 16.2397 101.037 16.1667C101.017 16.0937 101.025 16.0157 101.06 15.9484C101.099 15.8835 101.162 15.8363 101.235 15.8165C101.309 15.7968 101.387 15.806 101.453 15.8422C102.254 16.2475 103.139 16.4587 104.037 16.4587C104.934 16.4587 105.819 16.2475 106.62 15.8422C106.688 15.8031 106.768 15.7925 106.844 15.8128C106.919 15.8331 106.984 15.8826 107.023 15.9504C107.062 16.0181 107.073 16.0987 107.052 16.1743C107.032 16.2498 106.983 16.3143 106.915 16.3534C106.032 16.8176 105.046 17.0503 104.048 17.0297Z" fill="white"/>
<path d="M33.4371 58.7258C33.3852 58.7252 33.3344 58.7112 33.2895 58.685C33.2447 58.6588 33.2075 58.6213 33.1816 58.5764C33.1456 58.5093 33.137 58.4309 33.1575 58.3576C33.1781 58.2844 33.2261 58.2218 33.2917 58.1832C33.9247 57.8175 34.2747 57.3496 34.2747 56.862C34.2747 56.3745 33.9247 55.9066 33.2917 55.5409C33.2581 55.5215 33.2287 55.4957 33.2051 55.465C33.1815 55.4343 33.1642 55.3992 33.1541 55.3618C33.1441 55.3243 33.1415 55.2853 33.1466 55.2469C33.1516 55.2085 33.1642 55.1714 33.1835 55.1378C33.2029 55.1043 33.2287 55.0749 33.2594 55.0513C33.2901 55.0277 33.3252 55.0104 33.3626 55.0003C33.4001 54.9903 33.4391 54.9877 33.4775 54.9927C33.5159 54.9978 33.553 55.0104 33.5866 55.0297C34.4083 55.5055 34.8645 56.1543 34.8645 56.862C34.8645 57.5698 34.4083 58.2186 33.5866 58.6943C33.5404 58.7178 33.4888 58.7286 33.4371 58.7258Z" fill="white"/>
<path d="M63.4816 63.5262C63.4304 63.5271 63.3799 63.5135 63.3361 63.4869L41.423 50.8376C41.3582 50.7982 41.3108 50.7357 41.2904 50.6627C41.2699 50.5897 41.278 50.5117 41.3129 50.4444C41.3523 50.3795 41.4151 50.3323 41.4883 50.3125C41.5615 50.2928 41.6395 50.302 41.7061 50.3382L63.4698 62.901L114.496 33.4424L93.0267 21.0487C92.9932 21.0293 92.9637 21.0035 92.9402 20.9728C92.9165 20.9421 92.8992 20.907 92.8892 20.8696C92.8792 20.8321 92.8766 20.7931 92.8816 20.7547C92.8867 20.7163 92.8992 20.6792 92.9186 20.6457C92.938 20.6121 92.9637 20.5827 92.9945 20.5591C93.0252 20.5355 93.0603 20.5182 93.0977 20.5081C93.1351 20.4981 93.1742 20.4955 93.2126 20.5006C93.251 20.5056 93.2881 20.5182 93.3216 20.5375L115.231 33.1868C115.276 33.2121 115.314 33.2492 115.34 33.2942C115.367 33.3391 115.38 33.3903 115.38 33.4424C115.381 33.4945 115.367 33.5459 115.341 33.5909C115.315 33.636 115.277 33.673 115.231 33.698L63.631 63.4869C63.5856 63.513 63.534 63.5266 63.4816 63.5262Z" fill="white"/>
<path d="M63.1321 46.9322C63.0797 46.9326 63.0281 46.9191 62.9827 46.8929L55.6181 42.6385C55.5518 42.6005 55.5031 42.538 55.4825 42.4644C55.4619 42.3909 55.471 42.3122 55.508 42.2453C55.5473 42.1804 55.6101 42.1332 55.6833 42.1134C55.7565 42.0937 55.8345 42.1029 55.9012 42.1391L63.1203 46.3031L85.7766 33.2292L78.8523 29.2303C78.8187 29.211 78.7893 29.1852 78.7657 29.1545C78.7421 29.1237 78.7248 29.0886 78.7148 29.0512C78.7047 29.0138 78.7021 28.9748 78.7072 28.9363C78.7122 28.8979 78.7248 28.8609 78.7442 28.8273C78.7635 28.7937 78.7893 28.7643 78.82 28.7407C78.8508 28.7171 78.8859 28.6998 78.9233 28.6898C78.9607 28.6797 78.9998 28.6772 79.0382 28.6822C79.0766 28.6872 79.1136 28.6998 79.1472 28.7192L86.504 32.9736C86.5498 32.9986 86.5879 33.0356 86.6142 33.0807C86.6405 33.1257 86.6541 33.177 86.6534 33.2292C86.6528 33.2811 86.6388 33.332 86.6126 33.3768C86.5864 33.4216 86.5489 33.4588 86.504 33.4848L63.2776 46.8929C63.2336 46.9191 63.1833 46.9327 63.1321 46.9322Z" fill="white"/>
<path d="M82.021 44.7344C82.5965 44.7344 83.063 44.4651 83.063 44.1328C83.063 43.8006 82.5965 43.5312 82.021 43.5312C81.4455 43.5312 80.979 43.8006 80.979 44.1328C80.979 44.4651 81.4455 44.7344 82.021 44.7344Z" fill="white"/>
<path d="M61.9836 39.0888C61.9311 39.0893 61.8796 39.0757 61.8341 39.0495L59.4749 37.6969C59.43 37.6711 59.3927 37.6338 59.3668 37.5889C59.3408 37.5441 59.3271 37.4932 59.3271 37.4413C59.3271 37.3895 59.3408 37.3386 59.3668 37.2937C59.3927 37.2489 59.43 37.2116 59.4749 37.1858L70.2644 30.9574C70.3088 30.9303 70.3598 30.916 70.4118 30.916C70.4638 30.916 70.5148 30.9303 70.5593 30.9574L72.9185 32.3101C72.952 32.3294 72.9814 32.3552 73.005 32.3859C73.0286 32.4167 73.046 32.4518 73.056 32.4892C73.066 32.5266 73.0686 32.5656 73.0636 32.6041C73.0585 32.6425 73.046 32.6795 73.0266 32.7131C73.0072 32.7467 72.9814 32.7761 72.9507 32.7997C72.92 32.8233 72.8849 32.8406 72.8475 32.8506C72.81 32.8607 72.771 32.8632 72.7326 32.8582C72.6942 32.8531 72.6571 32.8406 72.6236 32.8212L70.4413 31.5512L60.2417 37.4492L62.1448 38.5462C62.2009 38.5786 62.2449 38.6285 62.2698 38.6883C62.2948 38.7481 62.2993 38.8145 62.2828 38.8772C62.2662 38.9398 62.2295 38.9953 62.1782 39.035C62.127 39.0747 62.0641 39.0964 61.9993 39.0967L61.9836 39.0888Z" fill="white"/>
</svg>
