<svg width="101" height="129" viewBox="0 0 101 129" fill="none" xmlns="http://www.w3.org/2000/svg">
<g opacity="0.5">
<path opacity="0.5" d="M61.8229 86.3896C61.7536 86.7806 61.6843 87.1643 61.6125 87.5405C60.7067 92.2778 59.5359 96.0028 58.0435 96.9705C57.9051 97.064 57.752 97.1335 57.5905 97.176C57.5573 97.1858 57.5234 97.1932 57.489 97.1983C57.3831 97.2189 57.2748 97.2248 57.1673 97.2156C56.0694 97.15 54.9862 96.93 53.9497 96.5622C51.4424 95.6093 51.2271 94.04 51.2271 94.04L50.5019 89.0404L50.2494 87.1816L50.044 85.7634L49.9326 84.9961C50.4902 85.8715 51.1106 86.7054 51.7889 87.491C53.0562 88.9612 54.8036 90.3522 56.7242 90.0725C57.5656 89.9085 58.3552 89.5443 59.0261 89.0107C60.0591 88.2512 60.998 87.3712 61.8229 86.3896Z" fill="#EA9B82"/>
</g>
<path d="M44.453 92.7411C44.5149 97.4437 42.3096 102.832 39.4459 106.495C39.0549 106.99 38.592 107.485 37.9832 107.681C35.9833 108.307 35.2606 105.01 35.0131 103.674C34.9586 103.359 34.9141 103.045 34.8844 102.728C34.7274 101.024 34.8783 99.305 35.3299 97.6541C35.3818 97.4487 35.4412 97.2457 35.5031 97.0452C35.9338 95.6443 36.4239 94.2261 36.805 92.7881C37.1517 91.5471 37.3649 90.2726 37.4411 88.9864C37.5055 87.4865 37.8396 85.8356 38.9435 84.7391C39.7058 83.9817 41.025 83.405 42.1339 83.5634C42.2345 83.5776 42.3339 83.5999 42.4309 83.6303C43.1394 83.8746 43.6903 84.4402 43.9159 85.1549C44.1981 85.9272 44.2154 86.7811 44.2847 87.5904C44.4332 89.3007 44.4357 91.0233 44.453 92.7411Z" fill="#F4FAFA"/>
<path d="M44.067 85.4652C42.9037 84.8242 41.3667 85.2177 40.4113 86.1434C39.4559 87.0691 39.0005 88.3932 38.8124 89.7075C38.707 90.2713 38.7171 90.8506 38.8421 91.4104C39.0574 92.2173 39.6416 92.8682 40.2529 93.4375C40.6737 93.831 41.1464 94.2146 41.7157 94.3087C42.7453 94.4795 43.671 93.6454 44.2254 92.7618" fill="#D9EAE6"/>
<path d="M17.8155 115.378C17.4195 116.714 17.3081 118.907 17.1918 121.194C17.1348 122.246 17.0779 123.32 16.9913 124.34C16.9901 124.345 16.9901 124.35 16.9913 124.355C16.9925 124.377 16.9925 124.399 16.9913 124.422C16.9665 124.709 16.9368 124.993 16.9071 125.271L16.8849 125.469C16.8131 126.07 16.7265 126.639 16.6176 127.157C16.5953 127.273 16.5705 127.384 16.5433 127.496C16.393 127.555 16.2371 127.599 16.078 127.627C15.8748 127.662 15.6699 127.686 15.4642 127.699C15.0013 127.733 14.541 127.753 14.0756 127.758H13.9098C12.4629 127.77 11.0182 127.642 9.59574 127.377L9.39773 127.337V127.283C9.39773 127.253 9.39773 127.223 9.39773 127.191C9.39773 127.11 9.37546 127.028 9.36803 126.944C9.36061 126.86 9.34081 126.731 9.33091 126.622C9.33091 126.573 9.31853 126.521 9.31358 126.469C9.30863 126.417 9.29378 126.298 9.28635 126.221C9.2517 125.857 9.21953 125.479 9.19725 125.115C9.00172 122.127 9.19725 118.91 9.9967 116.655C10.5783 115.039 11.1402 113.41 11.8357 111.841C12.1674 111.098 12.4619 110.296 12.9792 109.658C13.4965 109.019 14.3058 108.564 15.1696 108.73C16.271 108.942 17.3304 109.918 17.8031 110.88C18.464 112.269 18.2437 113.94 17.8155 115.378Z" fill="#F4FAFA"/>
<path d="M15.8221 118.185L12.951 119.554C12.8871 119.576 12.8329 119.62 12.7975 119.678C12.7208 119.836 12.9411 119.965 13.1119 120.007C13.8816 120.197 14.6439 120.425 15.3939 120.69C15.4893 120.715 15.5752 120.768 15.6414 120.841C15.7214 120.981 15.6947 121.157 15.577 121.267C15.4599 121.371 15.32 121.446 15.1686 121.487L12.8049 122.326C12.6564 122.378 12.4807 122.47 12.4881 122.628C12.5055 122.731 12.567 122.821 12.6564 122.875C13.3263 123.403 14.0872 123.803 14.9013 124.056C14.9802 124.079 15.0428 124.139 15.0685 124.216C15.0943 124.294 15.0799 124.38 15.03 124.445C14.9789 124.515 14.8966 124.556 14.8098 124.554L12.5624 124.477C12.3718 124.477 12.1292 124.425 12.0872 124.229C12.0451 124.034 12.2282 123.903 12.3916 123.816C12.9669 123.513 13.5869 123.304 14.2281 123.197C14.6089 123.163 14.9816 123.068 15.332 122.915C15.4277 122.872 15.4855 122.772 15.476 122.667C15.4665 122.563 15.3919 122.475 15.2899 122.45C14.5176 122.184 13.7607 121.875 13.0227 121.524C12.8272 121.432 12.602 121.277 12.6515 121.061C12.6812 120.933 12.8074 120.853 12.9237 120.791C13.5291 120.473 14.1684 120.224 14.8296 120.049C15.0771 119.985 15.379 119.846 15.3444 119.596C15.3044 119.459 15.2094 119.345 15.082 119.282L13.0203 117.854" stroke="#D9EAE6"/>
<path d="M12.5243 111.775C12.0824 112.599 11.7947 113.497 11.6754 114.424C11.5522 115.361 11.7252 116.313 12.1704 117.146C12.3263 117.444 12.5533 117.699 12.8312 117.889C13.1675 118.069 13.5393 118.173 13.9203 118.193C14.5489 118.265 15.2048 118.305 15.789 118.055C16.6874 117.674 17.2171 116.681 17.4275 115.693C17.6378 114.706 17.6057 113.681 17.7492 112.679" fill="#D9EAE6"/>
<path d="M50.6256 57.3834C50.6256 57.3834 49.0614 59.5119 46.7026 62.7493C44.4899 65.7912 41.5743 69.8157 38.6042 73.9714C34.4757 79.7556 30.2359 85.78 27.6222 89.7946C27.2732 90.3292 26.9515 90.8292 26.6619 91.2796C25.7733 92.6904 25.1942 93.7102 25.0481 94.1804C23.964 97.6455 19.4173 106.165 18.7664 109.34C18.4174 111.048 17.8184 113.318 17.3383 115.053C16.9642 116.407 15.6477 117.276 14.2558 117.089C12.8638 116.901 11.8241 115.715 11.8213 114.31C11.8213 114.226 11.8213 114.142 11.8337 114.063C12.1901 110.036 12.9376 101.96 13.5662 97.2322C14.1132 93.1335 16.4126 90.8712 18.4718 87.5497C18.9044 86.8552 19.3009 86.139 19.6599 85.4038C20.4858 83.7013 21.0825 81.897 21.4345 80.0378C22.0582 76.8647 23.8428 72.4393 25.8699 68.0732C29.4761 60.3163 33.852 52.75 33.852 52.75H34.347L49.0812 56.9453L50.6256 57.3834Z" fill="#F3A384"/>
<path d="M64.4544 60.0393C64.3975 60.7051 64.1079 66.8656 63.4248 73.9864C63.0313 78.0901 62.5065 82.5155 61.8209 86.389C61.7516 86.7801 61.6823 87.1637 61.6106 87.54C60.7047 92.2773 59.534 96.0023 58.0415 96.97C57.9031 97.0635 57.75 97.1329 57.5885 97.1755C57.5553 97.1852 57.5214 97.1927 57.4871 97.1977C57.3811 97.2184 57.2728 97.2242 57.1653 97.2151C56.0674 97.1495 54.9842 96.9295 53.9477 96.5616C51.4404 95.6087 51.2251 94.0395 51.2251 94.0395L50.4999 89.0399L50.2474 87.1811L50.042 85.7628L49.9306 84.9956L48.7475 76.8426L46.7031 62.752L49.0842 56.9454L49.7995 55.2129C49.7995 55.2129 64.6005 58.3785 64.4544 60.0393Z" fill="#F3A384"/>
<path d="M64.3706 59.1848C64.3409 59.8853 64.2989 60.8357 64.2444 61.9594C64.2073 62.7391 64.1627 63.6053 64.1132 64.5261C63.9523 67.3897 63.7296 70.8054 63.4251 73.9883C58.3476 73.0512 53.1035 74.0717 48.7479 76.8446L47.0525 70.2064L46.7134 68.8674L45.8719 65.5755C45.1941 66.4941 44.4549 67.3657 43.6591 68.1842C43.1963 68.6793 42.726 69.1396 42.2409 69.6445C40.9169 70.9878 39.7011 72.4336 38.605 73.9685C35.3443 70.3407 30.7391 68.2081 25.8633 68.0679C27.8953 63.6969 30.1724 59.3878 31.7713 56.4573C32.0188 55.9945 32.2663 55.5687 32.4718 55.1802C32.6772 54.7916 32.8826 54.4376 33.0534 54.1406L47.3297 56.4375L49.0845 56.9325L49.1687 56.7296L64.3706 59.1848Z" fill="#2D3A35"/>
<path d="M64.3696 59.1848C64.3399 59.8853 64.2978 60.8357 64.2433 61.9594C64.2062 62.7391 64.1617 63.6054 64.1122 64.5261C59.9045 65.3651 51.0413 67.3848 47.0514 70.2188L46.7123 68.8674L45.8708 65.5755C45.1931 66.4942 44.4538 67.3657 43.6581 68.1843C43.1952 68.6793 42.725 69.1396 42.2399 69.6446C42.2201 69.4342 42.2003 69.2164 42.178 68.9911C41.2102 58.7938 32.5054 55.1802 32.5054 55.1802H32.4707C32.686 54.7916 32.8816 54.4376 33.0523 54.1406L47.3286 56.4375L49.1676 56.7345L64.3696 59.1848Z" fill="#242E2A"/>
<path d="M57.6147 97.2197L57.486 97.1974C57.0825 97.133 55.7534 96.9103 53.9615 96.5613C48.7786 95.5416 39.8535 93.4353 39.4055 90.9329C38.7545 87.3961 43.232 86.0249 43.232 86.0249L49.8281 85.7773H50.0434L50.328 86.1387L57.2583 96.643L57.5949 97.1949L57.6147 97.2197Z" fill="#CD7454"/>
<path d="M17.9014 126.206C17.9076 126.275 17.9076 126.345 17.9014 126.414C17.8813 126.747 17.7278 127.057 17.4757 127.275C17.3295 127.396 17.1614 127.487 16.9807 127.545C16.8341 127.595 16.6834 127.632 16.5302 127.656C16.3347 127.686 16.1318 127.703 15.9362 127.716C15.334 127.755 14.7342 127.772 14.1368 127.765H14.0675C12.7891 127.756 11.5132 127.649 10.251 127.446L10.0604 127.411C9.83514 127.377 9.60744 127.335 9.3822 127.29L9.2436 127.263C9.24237 127.246 9.24237 127.23 9.2436 127.213C9.239 127.092 9.24563 126.97 9.2634 126.849C9.2634 126.793 9.28073 126.738 9.2931 126.684C9.2969 126.665 9.30186 126.647 9.30795 126.629C9.41026 126.232 9.59494 125.861 9.85 125.54C9.87722 125.503 9.9094 125.468 9.9391 125.431C10.0291 125.32 10.1258 125.214 10.2287 125.114C10.8376 124.52 10.7881 123.897 11.5801 123.501C12.4736 123.055 14.3497 122.825 15.3348 123.087C15.9654 123.28 16.514 123.677 16.8941 124.216C16.9287 124.258 16.9609 124.303 16.9931 124.347C17.0995 124.486 17.1985 124.627 17.2901 124.768C17.2966 124.781 17.304 124.793 17.3124 124.805L17.3817 124.909C17.3941 124.926 17.404 124.946 17.4188 124.966C17.6362 125.284 17.7915 125.64 17.8767 126.015C17.8909 126.078 17.8991 126.142 17.9014 126.206Z" fill="#F4FAFA"/>
<path d="M27.6222 89.7931C27.2732 90.3278 26.9515 90.8277 26.6619 91.2782C25.7733 92.689 25.1942 93.7087 25.0481 94.179C23.964 97.6441 19.4173 106.163 18.7664 109.339C18.4174 111.047 17.8184 113.316 17.3383 115.051C16.9642 116.405 15.6477 117.275 14.2558 117.087C12.8638 116.9 11.8241 115.713 11.8213 114.309C11.8213 114.225 11.8213 114.141 11.8337 114.061C12.1901 110.034 12.9376 101.958 13.5662 97.2308C14.1132 93.132 16.4126 90.8698 18.4718 87.5482C18.9044 86.8538 19.3009 86.1375 19.6599 85.4023C19.8863 87.0209 20.8159 88.4569 22.2 89.326C23.5841 90.1951 25.2814 90.4087 26.8376 89.9095C27.0833 89.7988 27.355 89.7585 27.6222 89.7931Z" fill="#EA9B82"/>
<path d="M26.6531 91.2846C25.7646 92.6954 25.1854 93.7152 25.0394 94.1854C24.6681 95.3735 23.8909 97.1555 22.9999 99.1084C21.297 102.861 19.1858 107.259 18.7576 109.345C18.4086 111.053 17.8096 113.323 17.3295 115.058C16.9554 116.412 15.639 117.281 14.247 117.094C12.855 116.906 11.8153 115.72 11.8125 114.315C11.8125 114.231 11.8125 114.147 11.8249 114.068C12.1813 110.041 12.9288 101.965 13.5574 97.2372C13.6506 96.5296 13.8055 95.8314 14.0203 95.1507C14.9385 92.2722 16.7825 90.2674 18.4631 87.5547C20.1945 90.3321 23.4167 91.8078 26.6506 91.3044L26.6531 91.2846Z" fill="#C2442B"/>
<path d="M57.5862 97.1797L57.6109 97.2242L57.4847 97.2019C57.3787 97.2226 57.2705 97.2284 57.1629 97.2193C56.065 97.1537 54.9818 96.9337 53.9453 96.5658C52.1113 96.2045 49.8119 95.707 47.5868 95.108C43.5153 94.0066 39.6888 92.5537 39.3918 90.9375C38.7409 87.4006 43.2183 86.0294 43.2183 86.0294L47.6462 85.8537L49.8119 85.7695C49.9456 86.2423 50.0842 86.7125 50.2352 87.1803C50.901 89.252 51.7598 91.2568 53.037 93.0067C54.1314 94.5313 55.5739 95.7727 57.2446 96.6277C57.4921 96.7564 57.7693 96.8752 58.0366 96.9742C57.899 97.0674 57.7468 97.1369 57.5862 97.1797Z" fill="#C2442B"/>
<path d="M57.5881 97.1797L57.6129 97.2242L57.4866 97.2019C57.3807 97.2226 57.2724 97.2284 57.1649 97.2193C56.067 97.1537 54.9838 96.9337 53.9473 96.5658C52.1132 96.2045 49.8139 95.707 47.5888 95.108C47.5269 94.915 47.4774 94.7194 47.4279 94.5264C46.9502 92.6849 46.47 90.8138 46.4898 88.9129C46.4898 87.9451 46.6656 86.9204 47.2992 86.1903C47.4062 86.0688 47.5229 85.9562 47.6482 85.8537L49.8139 85.7695C49.9475 86.2423 50.0861 86.7125 50.2371 87.1803C50.9029 89.252 51.7618 91.2568 53.0389 93.0067C54.1334 94.5313 55.5759 95.7727 57.2466 96.6277C57.4941 96.7564 57.7713 96.8752 58.0386 96.9742C57.901 97.0674 57.7487 97.1369 57.5881 97.1797Z" fill="#B03723"/>
<path d="M26.8619 66.0844C28.842 65.9606 30.728 66.5497 32.5546 67.26C34.1683 67.8912 35.7994 68.5867 36.9305 69.9529C37.032 70.0767 37.2053 69.9009 37.1063 69.7797C35.9974 68.4382 34.4159 67.7328 32.8343 67.1066C30.9285 66.3492 28.9434 65.7082 26.8669 65.8369C26.7084 65.8369 26.7084 66.0844 26.8669 66.0844H26.8619Z" fill="#42504A"/>
<path d="M51.2936 73.8167C53.0633 72.6906 55.1251 72.2673 57.1893 72.0842C59.2535 71.901 61.5033 71.7649 63.5651 72.2277C63.721 72.2624 63.7854 72.0248 63.6294 71.9802C61.4811 71.4976 59.1594 71.6436 56.9814 71.8465C54.9444 72.0371 52.9148 72.4777 51.1699 73.5791C51.0362 73.6633 51.1699 73.8786 51.2936 73.792V73.8167Z" fill="#42504A"/>
<path d="M69.7198 30.321C69.5342 30.7244 69.3535 31.1427 69.1827 31.5734C68.7446 32.6525 68.3461 33.8158 67.9823 35.0385V35.0509C64.7152 46.0031 64.2697 61.3511 64.2697 61.3511L32.6084 54.9159C32.6249 52.7708 32.7132 50.7297 32.8732 48.7925C33.0681 46.2948 33.4036 43.81 33.8781 41.35C34.0068 40.6941 34.1429 40.0555 34.289 39.4293C36.1775 31.2615 39.4867 25.6208 43.1993 21.7423C46.8507 17.9174 51.556 15.2632 56.7182 14.1166C60.1709 13.3568 62.8638 13.4929 63.7623 13.728C64.1549 13.8333 64.5382 13.9707 64.9082 14.1389C65.7491 14.5158 66.5391 14.9973 67.2596 15.572C70.3732 18.0223 73.1849 22.8314 69.7198 30.321Z" fill="#4FCA77"/>
<path d="M67.9686 35.043C64.7015 45.9952 64.256 61.3432 64.256 61.3432L32.5947 54.908C32.6112 52.7629 32.6995 50.7218 32.8596 48.7846C46.5072 52.1136 62.5234 50.1039 67.9686 35.043Z" fill="#4FCA77"/>
<path d="M57.2573 13.1104L56.7325 14.1128L51.3171 24.4958L47.0772 28.7455L44.5502 31.28L37.8675 37.9627L36.3824 39.4478L34.7167 39.4156H34.291L30.2764 39.3364C30.377 38.8414 30.4826 38.3587 30.5932 37.8885C31.6476 33.3071 33.0683 29.3172 34.8528 25.9536C35.0211 25.6318 35.1944 25.315 35.375 25.0057C35.5928 24.6162 35.8197 24.2376 36.0557 23.8696C37.148 22.1047 38.4467 20.4761 39.9242 19.0184C44.3918 14.6623 50.1587 12.6203 57.2573 13.1104Z" fill="#4FCA77"/>
<path d="M42.2998 38.0222L42.0275 39.532L36.3943 39.4553L34.7186 39.433L30.2783 39.3464C30.379 38.8513 30.4846 38.3687 30.5951 37.8984L37.8719 37.9727L40.6885 38.0024L42.2998 38.0222Z" fill="#6CAEE0"/>
<path d="M97.2335 44.8598C96.3524 45.3029 95.3352 45.1865 94.4144 44.8771C93.4462 44.5199 92.54 44.013 91.729 43.3748C91.7017 43.2362 90.1078 35.4545 87.9198 30.7518C87.6397 30.1346 87.3172 29.5375 86.9545 28.9648C85.6502 29.0341 83.9349 29.0119 82.2073 28.95H70.1289L75.5964 19.4803L76.3834 18.1289L76.9354 18.3269L77.0468 18.3665L77.3091 18.4581L79.0417 19.0719L90.5335 23.1558C92.1215 23.7213 93.3265 25.0366 93.7511 26.6679C94.907 31.1082 97.0875 40.0829 97.2162 44.6618C97.2311 44.7262 97.2335 44.7979 97.2335 44.8598Z" fill="#F3A384"/>
<path d="M76.9369 18.3076C76.8528 19.4164 76.1152 22.8741 75.5435 25.4482C75.1648 27.151 74.8306 28.9455 74.8306 28.9455L73.8059 29.0247H73.7465L73.5708 29.042C72.2103 29.1799 70.8961 29.6123 69.7196 30.3093L68.581 29.7078L66.6629 28.693L64.4551 13.9688L64.6729 14.0405H64.7001L64.9229 14.1148C65.4352 14.288 66.3386 14.5949 67.4326 14.9613L69.9819 15.8201H69.9968L75.6202 17.82L75.8949 17.9165L76.3899 18.0898L76.9369 18.3076Z" fill="#4FCA77"/>
<path d="M48.8345 13.6211C48.0475 15.2893 48.0376 17.2595 48.4336 19.0663C49.0438 21.8792 50.5792 24.4064 52.7947 26.244C53.6189 26.9197 54.552 27.4816 55.5866 27.6746C55.8273 27.7323 56.0795 27.7211 56.3142 27.6424C56.4838 27.5578 56.6372 27.4438 56.7672 27.3058L58.0394 26.1128C58.2981 25.8826 58.5404 25.6344 58.7646 25.3703C59.7348 24.16 59.8759 22.4002 59.4378 20.8929C58.9997 19.3856 58.0641 18.0911 57.0469 16.9328C56.2134 15.9406 55.2598 15.056 54.2079 14.2993" fill="#4FCA77"/>
<path d="M57.9761 36.7053C57.9761 42.4525 55.1372 47.2343 51.3973 48.2268C50.9266 48.3525 50.4416 48.4166 49.9544 48.4174C49.5928 48.4182 49.2321 48.3825 48.8777 48.311C44.9497 47.5462 41.9326 42.6307 41.9326 36.7053C41.9326 31.6809 44.0983 27.3941 47.1427 25.7308C47.9863 25.2594 48.9336 25.0043 49.8999 24.9883H49.9544C54.3823 24.9908 57.9761 30.2355 57.9761 36.7053Z" fill="#7B9B5D"/>
<path d="M57.9746 36.7082C57.9746 42.4553 55.1357 47.2372 51.3959 48.2297C52.4057 45.5294 53.2225 42.7499 53.5814 39.8936C54.012 36.4582 53.762 32.8916 52.4601 29.6864C51.7894 28.033 50.8538 26.5084 49.8984 24.9961L49.9529 24.9961C54.3833 24.9936 57.9746 30.2383 57.9746 36.7082Z" fill="#D7D4C4"/>
<path d="M51.9306 25.3476L51.9268 25.3438" stroke="#D7D4C4" stroke-dasharray="0.01 0.01"/>
<path d="M53.5457 37.4436C53.5457 42.2601 51.6325 46.4133 48.8777 48.3068C44.9497 47.542 41.9326 42.6264 41.9326 36.7011C41.9326 31.6767 44.0983 27.3898 47.1427 25.7266C50.7984 26.8478 53.5457 31.6668 53.5457 37.4436Z" fill="#F4F3E9"/>
<path d="M49.2751 14.6387C48.5474 18.6854 50.3146 23.1505 53.4827 25.2444C53.9134 25.529 54.3985 25.779 54.896 25.7171C55.5717 25.633 56.0791 25.0043 56.5196 24.4177L49.2751 14.6387Z" fill="#CF816C"/>
<path d="M57.9573 40.5445C58.1753 40.5481 58.3831 40.637 58.5364 40.792C58.8409 41.0865 58.9201 41.6137 58.3904 42.1434C57.5959 42.9379 54.6357 45.6085 51.9552 45.4649C51.69 45.4502 51.4291 45.3916 51.183 45.2917C50.0024 44.8115 49.2499 43.4477 48.8193 42.3538C48.6287 41.8759 48.474 41.3844 48.3564 40.8836V40.844C49.3663 39.0396 48.2104 32.6143 47.9951 31.4584C47.7797 30.3026 49.5098 31.0971 49.7994 33.0474C50.089 34.9978 52.2547 37.9555 54.4204 36.5126C56.5861 35.0696 56.7321 32.8272 57.5959 33.191C58.9523 33.7603 56.9945 37.0125 56.9499 37.0868C57.0217 37.0323 58.1726 36.1264 58.1008 35.3542C59.0414 35.6438 59.1849 37.0868 58.6082 37.8095C58.0662 38.4877 57.6504 38.9728 57.6009 39.0322C57.6677 38.9827 58.4721 38.3713 58.68 38.0248C58.9671 39.3168 58.6082 40.1113 57.9573 40.5445Z" fill="#F3A384"/>
<path d="M51.2073 45.2737H51.1925C50.6232 45.5583 33.7308 53.9365 31.3918 52.595C29.9068 51.7361 29.7088 48.3873 29.8845 45.0163C29.986 42.9966 30.1196 40.8507 30.2805 39.3359L42.0767 39.4547L41.7525 41.7293L48.3684 40.8655H48.3932L49.3436 42.3506L51.2073 45.2737Z" fill="#F3A384"/>
<path d="M63.3905 11.6027C63.3905 17.2087 61.6579 24.8864 58.1284 25.0795C57.8017 25.0958 57.4747 25.053 57.1631 24.9533C54.5495 24.1464 51.765 21.6985 50.327 18.8027C49.2132 16.5603 49.1909 14.0109 48.9013 11.9764C48.7296 10.9674 48.7162 9.93776 48.8617 8.92463C48.8617 8.90483 48.8617 8.88255 48.8741 8.86275C48.8727 8.84463 48.8727 8.82642 48.8741 8.8083C49.0315 8.00056 49.2893 7.21565 49.6414 6.47182C50.7898 4.07346 52.859 2.56861 55.5642 2.7889C56.0069 2.82583 56.4452 2.90372 56.8736 3.02155C58.0876 3.34303 59.2163 3.92684 60.1803 4.73184C62.2202 6.42971 63.3971 8.94859 63.3905 11.6027Z" fill="#F3A384"/>
<path d="M97.2338 44.8608C97.5283 45.2816 98.8104 46.4573 99.1025 46.8805C99.4025 47.2656 99.6343 47.6992 99.7881 48.1626C99.8667 48.617 99.918 49.0757 99.9415 49.5363C100.001 49.9768 100.144 50.4025 100.189 50.8456C100.26 51.2957 100.117 51.7533 99.8029 52.0831C99.4737 52.3727 98.9985 52.4123 98.5654 52.4074C98.5168 52.4 98.4672 52.4116 98.4268 52.4395C98.3996 52.4719 98.3824 52.5114 98.3773 52.5534C98.2988 52.8732 98.078 53.1393 97.7782 53.2755C97.4784 53.4116 97.1327 53.4027 96.8402 53.2514C96.7714 53.6413 96.4845 53.957 96.1029 54.0627C95.7213 54.1684 95.3129 54.0453 95.0532 53.7464C94.8566 53.9995 94.5935 54.1932 94.2934 54.3057C93.9827 54.4107 93.6396 54.3121 93.4321 54.0582L93.3182 54.4988L93.2984 54.531C93.3232 55.8626 91.8901 56.7586 92.0609 55.9715C92.2316 55.1844 91.8802 54.3132 91.3183 52.7266C90.7565 51.1401 92.0609 48.7492 92.4098 47.3508C92.7588 45.9523 91.7416 43.3906 91.7416 43.3906L97.2338 44.8608Z" fill="#F3A384"/>
<g opacity="0.5">
<path opacity="0.5" d="M58.3931 42.1306C57.5986 42.9251 54.6384 45.5957 51.9579 45.4521C51.6927 45.4373 51.4317 45.3788 51.1856 45.2789C50.6164 45.5635 33.7239 53.9417 31.385 52.6002C29.8999 51.7413 29.7019 48.3925 29.8776 45.0215C30.1744 45.4615 30.6009 45.798 31.0979 45.9843C32.1795 46.3753 33.3774 46.1427 34.5011 45.9001C38.3672 45.0611 42.2234 44.1502 45.9979 42.9671C46.9211 42.6776 47.8616 42.3682 48.8244 42.3409C48.9036 42.3409 48.9828 42.3409 49.0719 42.3409L49.3467 42.3558C50.0892 42.4127 50.8317 42.6206 51.5569 42.732C53.7645 43.0597 56.0137 42.5282 57.8411 41.247C58.0652 41.0804 58.2991 40.9275 58.5416 40.7891C58.8436 41.0737 58.9228 41.6009 58.3931 42.1306Z" fill="#EA9B82"/>
</g>
<path d="M57.4023 20.75C58.1949 20.8991 58.9992 20.977 59.8057 20.9827" stroke="#DB8D75"/>
<path d="M54.5215 8.70969C54.222 9.53636 53.5587 10.17 52.9597 10.816C52.763 11.0241 52.5771 11.2422 52.4028 11.4694C52.1457 11.797 51.9465 12.1662 51.8138 12.5609C51.759 12.7312 51.7241 12.9073 51.7098 13.0856C51.7127 13.5785 51.7624 14.0699 51.8583 14.5534C51.9527 15.0438 51.8543 15.5518 51.5836 15.9716C51.5836 14.6845 51.2544 13.395 50.0812 12.8654C49.8758 12.7738 49.1605 12.7441 48.9996 12.5881C48.9642 12.553 48.9319 12.5149 48.9031 12.4743C48.7323 11.2615 48.5962 6.92515 49.0912 6.43013C49.2669 6.2544 49.4501 7.11078 49.6555 6.9697C50.0868 6.67555 50.5843 6.49273 51.1034 6.43756C51.8726 6.36926 52.6468 6.48727 53.3607 6.78159C53.9151 6.99445 54.5017 7.35086 54.6156 7.93498C54.6538 8.19699 54.6214 8.46445 54.5215 8.70969Z" fill="#413E33"/>
<path opacity="0.5" d="M97.233 44.8593C96.3519 45.3023 95.3346 45.186 94.4139 44.8766C93.4457 44.5194 92.5395 44.0124 91.7285 43.3742C91.7012 43.2356 90.1073 35.454 87.9193 30.7513C87.6392 30.134 87.3167 29.5369 86.954 28.9643C85.6496 29.0336 83.9344 29.0113 82.2068 28.9494H74.8311C74.9204 28.8245 74.9625 28.6719 74.9499 28.5188L75.4968 25.8729L75.581 25.4596L76.0364 23.2543L76.2641 22.1504C90.0924 25.4645 90.1766 23.0414 97.2281 44.6464C97.2306 44.7256 97.233 44.7974 97.233 44.8593Z" fill="#EA9B82"/>
<path d="M61.8219 86.3857C61.7526 86.7767 61.6833 87.1604 61.6116 87.5366C60.7057 92.2739 59.535 95.9989 58.0425 96.9666C57.9041 97.0601 57.751 97.1295 57.5896 97.1721C57.5563 97.1819 57.5224 97.1893 57.4881 97.1944C57.3821 97.215 57.2739 97.2209 57.1663 97.2117C56.0684 97.1461 54.9852 96.9261 53.9487 96.5583C51.4414 95.6053 51.2261 94.0361 51.2261 94.0361L50.5009 89.0365L50.2485 87.1777L50.043 85.7595L49.9316 84.9922C50.4892 85.8676 51.1096 86.7015 51.788 87.4871C53.0552 88.9573 54.8026 90.3483 56.7233 90.0686C57.5647 89.9046 58.3542 89.5404 59.0251 89.0068C60.0582 88.2472 60.9971 87.3673 61.8219 86.3857Z" fill="#F3A384"/>
<path d="M35.2957 99.5389C36.0382 101.863 38.3945 102.098 40.4934 102.014C40.6518 102.014 40.6518 101.766 40.4934 101.766C38.5133 101.836 36.2387 101.675 35.5234 99.4622C35.4764 99.3112 35.2363 99.378 35.2759 99.529L35.2957 99.5389Z" fill="#D9EAE6"/>
<path d="M34.8019 101.532C34.7252 101.945 35.1187 102.239 35.4009 102.492C35.8431 102.888 36.3441 103.214 36.8859 103.457C37.9317 103.925 39.0908 104.079 40.2223 103.9C40.3783 103.875 40.3114 103.638 40.1555 103.653C39.2342 103.799 38.2909 103.714 37.4106 103.405C36.9867 103.252 36.5822 103.051 36.2053 102.804C35.9404 102.631 34.9677 101.992 35.0395 101.601C35.0692 101.445 34.8316 101.378 34.792 101.534L34.8019 101.532Z" fill="#D9EAE6"/>
<path d="M16.8309 123.747C16.2121 123.051 15.0562 122.947 14.185 122.868C13.0023 122.768 11.8114 122.889 10.6729 123.224C10.6045 123.242 10.5635 123.312 10.5813 123.38C10.5991 123.449 10.6689 123.49 10.7372 123.472C11.7135 123.185 12.7301 123.059 13.7469 123.098C14.633 123.135 16.0215 123.217 16.6552 123.93C16.7616 124.051 16.9348 123.875 16.8309 123.757V123.747Z" fill="#D9EAE6"/>
<path d="M17.0604 124.498C15.0803 123.728 12.9468 124.114 10.9296 124.562C10.7736 124.597 10.8405 124.835 10.9964 124.81C12.9765 124.372 15.0456 123.993 16.996 124.748C17.1445 124.805 17.2089 124.565 17.0604 124.5V124.498Z" fill="#D9EAE6"/>
<path d="M48.1001 40.8262C48.3476 42.3113 51.5653 44.7864 51.3177 45.2814C51.0702 45.7764 49.0902 46.5189 49.0902 46.5189C49.0902 46.5189 46.0285 45.4423 46.1993 41.1554C46.3676 40.5787 48.1001 40.8262 48.1001 40.8262Z" fill="#F4FAFA"/>
<path d="M97.2324 44.7428C95.7721 44.3666 92.2079 46.3095 91.8565 45.8838C91.505 45.4581 91.6238 43.3444 91.6238 43.3444C91.6238 43.3444 93.2524 40.6737 97.1061 42.5622C97.564 42.9508 97.2324 44.7428 97.2324 44.7428Z" fill="#F4FAFA"/>
<path d="M49.8206 12.745C49.4666 12.4035 48.8429 12.25 48.5038 12.604C48.1648 12.9579 48.3133 13.4801 48.4618 13.9182L48.6746 14.5518C48.7888 14.9509 48.9606 15.3311 49.1845 15.6805C49.4154 16.031 49.7897 16.2612 50.2067 16.3092" fill="#F3A384"/>
<path d="M26.6499 91.2848C25.7613 92.6956 25.1822 93.7153 25.0361 94.1856C24.6649 95.3736 23.8877 97.1557 22.9967 99.1085C22.9249 99.1085 22.8531 99.1085 22.7813 99.1085C21.1923 98.9922 19.6776 98.4081 18.19 97.8289C16.8882 97.3339 15.5467 96.7918 14.5591 95.8043C14.3561 95.6031 14.1752 95.3807 14.0195 95.141C14.9378 92.2624 16.7817 90.2576 18.4623 87.5449C20.1937 90.3224 23.4159 91.7981 26.6499 91.2947V91.2848Z" fill="#B03723"/>
<path d="M17.4766 89.0332C17.6597 89.2807 17.8404 89.5406 18.0384 89.7757C18.9563 90.8504 20.1363 91.6697 21.4639 92.1543C22.7875 92.6352 24.1818 92.8928 25.5899 92.9166H25.6443" stroke="#F4FAFA"/>
<path d="M49.4962 85.7773C49.0655 86.5199 49.1472 87.5099 49.2809 88.3935C49.5927 90.4676 50.0234 92.5244 50.4268 94.5812C50.4961 95.0389 50.6338 95.4836 50.8352 95.9004" stroke="#F4FAFA"/>
<path d="M62.911 6.84271C62.9033 4.84481 62.0292 2.94851 60.5151 1.64504C60.3963 1.54109 60.2181 1.71682 60.3394 1.82077C61.8067 3.07671 62.655 4.90885 62.6635 6.84024C62.6635 6.90859 62.7189 6.96399 62.7872 6.96399C62.8556 6.96399 62.911 6.90859 62.911 6.84024V6.84271Z" fill="#393130"/>
<path d="M61.531 4.74167C60.8108 3.63531 59.551 3.28632 58.2936 3.17742C56.7368 3.03881 55.0909 2.92991 53.591 3.4472C53.4425 3.49671 53.5068 3.73679 53.6578 3.69471C54.9473 3.25662 56.2962 3.31355 57.6377 3.39028C58.9792 3.467 60.5113 3.63779 61.3206 4.87533C61.4073 5.00898 61.6201 4.87533 61.5335 4.75157L61.531 4.74167Z" fill="#393130"/>
<path d="M61.3655 5.81904C59.697 4.96489 57.7911 4.69224 55.9501 5.04434C55.7917 5.07404 55.8585 5.31165 56.0144 5.29185C57.7902 4.95324 59.6282 5.21444 61.2393 6.03437C61.3829 6.10615 61.5066 5.8933 61.3655 5.82152V5.81904Z" fill="#393130"/>
<path d="M76.9364 18.3136C76.8523 19.4225 76.1147 22.8802 75.543 25.4542C75.1643 27.1571 74.8301 28.9515 74.8301 28.9515L73.8054 29.0307H73.746L73.5703 29.0481L75.3474 19.321L75.6197 17.8359L75.8944 17.9325L76.3894 18.1057L76.9364 18.3136Z" fill="#6CAEE0"/>
<path d="M59.9814 14.3418C59.9814 14.3418 60.7239 18.5494 60.2289 18.5494C59.7339 18.5494 58.6201 18.4257 58.6201 18.4257" stroke="#DB8D75"/>
<path d="M42.7213 94.7687L39.6744 95.6771C39.6084 95.6893 39.5483 95.7233 39.5037 95.7736C39.4047 95.9196 39.6002 96.083 39.7635 96.1498C40.4969 96.455 41.2139 96.7978 41.9119 97.177C42.0034 97.2159 42.081 97.2814 42.1347 97.3651C42.1934 97.5153 42.1399 97.6861 42.006 97.7759C41.8742 97.8611 41.724 97.9137 41.5679 97.9294L39.0928 98.3799C38.9393 98.4096 38.7488 98.4714 38.7339 98.6274C38.7385 98.7296 38.785 98.8254 38.8626 98.8922C39.4433 99.5157 40.1327 100.028 40.8971 100.404C40.9713 100.439 41.0238 100.508 41.0371 100.589C41.0505 100.669 41.0231 100.751 40.964 100.808C40.9049 100.872 40.8165 100.9 40.7313 100.882L38.5235 100.459C38.3354 100.422 38.1028 100.34 38.0904 100.15C38.078 99.959 38.281 99.8501 38.4542 99.7907C39.0682 99.5778 39.7127 99.4666 40.3625 99.4615C40.7446 99.4872 41.1283 99.4504 41.4986 99.3526C41.5994 99.3244 41.6717 99.2357 41.6789 99.1313C41.6861 99.0268 41.6268 98.9291 41.5308 98.8872C40.8079 98.5054 40.1072 98.0832 39.4319 97.6225C39.2537 97.5012 39.0557 97.3057 39.1373 97.1052C39.2057 96.9907 39.3187 96.9099 39.4492 96.8824C40.0962 96.6592 40.7662 96.5089 41.4466 96.4344C41.6941 96.4072 42.0208 96.3181 42.0258 96.0657C42.0067 95.9246 41.9307 95.7976 41.8154 95.7142L39.9937 94.0039" stroke="#D9EAE6"/>
<path d="M58.21 111.437C58.2529 111.097 58.3658 110.77 58.5416 110.476C58.8518 109.953 59.31 109.534 59.8584 109.271C60.1674 109.12 60.5047 109.036 60.8484 109.023C60.8074 109.363 60.6953 109.69 60.5192 109.984C60.3653 110.245 60.1725 110.481 59.9475 110.684C59.7258 110.885 59.4756 111.052 59.2049 111.179C58.8951 111.334 58.5561 111.422 58.21 111.437Z" fill="#82C286"/>
<path d="M12.2538 80.0434C11.983 79.7134 11.7712 79.3391 11.6276 78.937C11.492 78.566 11.399 78.1807 11.3504 77.7886C11.3005 77.3969 11.2963 77.0007 11.338 76.608C11.3755 76.1826 11.4895 75.7676 11.6746 75.3828C11.9477 75.7108 12.1605 76.0846 12.3033 76.4867C12.439 76.8576 12.5312 77.243 12.5781 77.6351C12.6268 78.0278 12.6309 78.4247 12.5904 78.8182C12.5499 79.243 12.4361 79.6576 12.2538 80.0434Z" fill="#82C286"/>
<path d="M1.52377 100C1.19765 99.725 0.922806 99.394 0.711944 99.0228C0.512973 98.6812 0.352751 98.3184 0.234252 97.9412C0.116752 97.564 0.0428434 97.1745 0.0139699 96.7804C-0.0239431 96.3552 0.0154694 95.9267 0.130299 95.5156C0.457565 95.7948 0.732471 96.13 0.942126 96.5057C1.14134 96.8469 1.30078 97.2098 1.41734 97.5873C1.53365 97.9648 1.60754 98.3542 1.63763 98.7481C1.6725 99.169 1.63398 99.5928 1.52377 100Z" fill="#82C286"/>
<path d="M35.3445 97.6562C35.4584 98.5597 35.889 99.4284 35.8173 100.334C35.7579 101.109 35.3396 101.8 35.003 102.5C34.9667 102.578 34.932 102.654 34.899 102.73C34.742 101.026 34.893 99.3072 35.3445 97.6562Z" fill="#748784"/>
<path d="M42.4442 83.6308C40.9431 83.7808 39.5894 84.5991 38.7588 85.8584C37.5683 87.7147 37.7465 90.118 37.0386 92.2045C36.9718 92.4 36.8976 92.5931 36.8184 92.7861C37.165 91.5451 37.3783 90.2707 37.4545 88.9844C37.5188 87.4845 37.8529 85.8336 38.9568 84.7372C39.7192 83.9798 41.0384 83.4031 42.1472 83.5615C42.248 83.5764 42.3473 83.5996 42.4442 83.6308Z" fill="#748784"/>
<path d="M17.1922 121.195C17.1352 122.252 17.0783 123.331 16.9892 124.356C16.9669 124.314 16.9447 124.274 16.9249 124.232C16.9164 124.218 16.909 124.203 16.9026 124.188C16.7863 123.967 16.6551 123.745 16.5264 123.529C16.5505 123.124 16.6236 122.724 16.7442 122.336C16.8664 121.946 17.0161 121.565 17.1922 121.195Z" fill="#748784"/>
<path d="M17.8964 126.414C17.8775 126.746 17.7259 127.056 17.4756 127.275C17.3294 127.396 17.1613 127.488 16.9806 127.545C16.834 127.595 16.6833 127.633 16.5301 127.657C16.3346 127.686 16.1317 127.704 15.9361 127.716C15.3339 127.756 14.7341 127.772 14.1367 127.765H13.9016C12.4547 127.777 11.01 127.65 9.58754 127.384L9.38953 127.345V127.29L9.25092 127.263C9.24969 127.247 9.24969 127.23 9.25092 127.214C9.25126 127.112 9.25787 127.01 9.27073 126.909L9.3524 126.951C9.7777 127.165 10.2414 127.291 10.7162 127.322C11.4339 127.382 12.1567 127.3 12.8769 127.308C13.664 127.308 14.4486 127.441 15.2357 127.419C15.7074 127.413 16.1749 127.33 16.6192 127.171C16.9279 127.057 17.2144 126.889 17.4657 126.676C17.5831 126.552 17.7319 126.461 17.8964 126.414Z" fill="#748784"/>
<path d="M63.1948 7.87215C63.0586 8.20876 62.8928 8.54537 62.7369 8.88198C62.4048 8.8874 62.076 8.94848 61.7642 9.06266C59.1629 9.87449 56.3338 10.3002 53.7177 9.54035C53.3713 9.39653 52.9934 9.34535 52.6212 9.39185C51.9257 9.55521 51.646 10.3819 51.4851 11.065L51.1584 12.4832C51.1065 12.7085 51.0075 12.9782 50.7773 13.0154C50.6874 13.024 50.5969 13.0086 50.5149 12.9708C49.8724 12.7205 49.3842 12.1837 49.1957 11.5204L49.2823 11.0106C48.9086 8.92406 48.6041 6.70391 49.4036 4.73869C49.8948 3.54555 50.7553 2.5411 51.8589 1.87254C52.1176 1.74015 52.3573 1.57366 52.5717 1.37753C53.9283 0.802527 55.3933 0.528104 56.866 0.573125C58.4013 0.627625 59.9287 0.818964 61.43 1.14487C61.8229 1.3994 62.199 1.67883 62.5562 1.98145C63.701 3.72914 63.9385 5.91974 63.1948 7.87215Z" fill="#413E33"/>
<path d="M62.5403 8.73763C63.8378 8.47733 64.819 7.40918 64.9684 6.09424C64.68 6.1661 64.4039 6.28038 64.1491 6.43333C64.6099 5.23354 64.5833 3.90111 64.0748 2.7207C63.4876 4.01923 62.3527 4.98895 60.9785 5.36657" fill="#413E33"/>
<path d="M51.0439 2.56171C52.0343 1.51757 53.2798 0.749777 54.6576 0.334136C54.5009 0.606128 54.3826 0.898484 54.3061 1.20289C55.1489 0.539837 56.159 0.123449 57.2242 0C56.9262 0.49174 56.7695 1.05609 56.7713 1.63108" fill="#413E33"/>
<path d="M62.8515 4.17405C63.0938 3.86011 63.2048 3.46432 63.1609 3.07016C63.0817 1.79302 62.0322 0.753486 60.859 0.246094C61.2773 0.676758 61.2773 1.39453 60.9927 1.92173C60.6755 2.43564 60.2177 2.84792 59.6735 3.10977C58.9312 3.51976 58.1282 3.80885 57.2949 3.96614" fill="#413E33"/>
<path d="M49.7014 5.25195C49.3251 5.90785 48.5009 6.27416 48.2881 6.99936C48.7277 6.69023 49.2062 6.44056 49.7113 6.25684" fill="#413E33"/>
<g opacity="0.5">
<path opacity="0.5" d="M61.8229 86.3896C61.7536 86.7806 61.6843 87.1643 61.6125 87.5405C60.7067 92.2778 59.5359 96.0028 58.0435 96.9705C57.9051 97.064 57.752 97.1335 57.5905 97.176C57.5573 97.1858 57.5234 97.1932 57.489 97.1983C57.3831 97.2189 57.2748 97.2248 57.1673 97.2156C56.0694 97.15 54.9862 96.93 53.9497 96.5622C51.4424 95.6093 51.2271 94.04 51.2271 94.04L50.5019 89.0404L50.2494 87.1816L50.044 85.7634L49.9326 84.9961C50.4902 85.8715 51.1106 86.7054 51.7889 87.491C53.0562 88.9612 54.8036 90.3522 56.7242 90.0725C57.5656 89.9085 58.3552 89.5443 59.0261 89.0107C60.0591 88.2512 60.998 87.3712 61.8229 86.3896Z" fill="#EA9B82"/>
</g>
<path d="M56.7879 14.8453C57.0381 14.8453 57.2408 14.6425 57.2408 14.3924C57.2408 14.1422 57.0381 13.9395 56.7879 13.9395C56.5377 13.9395 56.335 14.1422 56.335 14.3924C56.335 14.6425 56.5377 14.8453 56.7879 14.8453Z" fill="#443C32"/>
<path d="M61.9852 15.0875C62.2353 15.0875 62.4381 14.8847 62.4381 14.6346C62.4381 14.3844 62.2353 14.1816 61.9852 14.1816C61.735 14.1816 61.5322 14.3844 61.5322 14.6346C61.5322 14.8847 61.735 15.0875 61.9852 15.0875Z" fill="#443C32"/>
<path d="M55.0186 13.2892C56.0283 12.8773 57.1553 12.857 58.1792 13.2323" stroke="#574A46" stroke-linecap="round"/>
<path d="M60.8418 13.1105C61.6756 12.9671 62.5312 13.0188 63.3416 13.2615" stroke="#574A46" stroke-linecap="round"/>
<path d="M55.6494 13.9795C55.6494 13.9795 56.887 13.6825 57.382 13.9547" stroke="#443C32"/>
<path d="M62.8253 14.2217C62.8253 14.2217 61.5878 13.9247 61.0928 14.1969" stroke="#443C32"/>
<path d="M8.46777 128.316L8.61133 128.351L8.46777 128.316Z" fill="#F4FAFA"/>
</svg>
