<svg width="169" height="105" viewBox="0 0 169 105" fill="none" xmlns="http://www.w3.org/2000/svg">
<path d="M168.9 46.0868C168.9 45.3995 168.444 44.7122 167.537 44.1882L92.352 0.786023C90.5369 -0.262008 87.5941 -0.262008 85.7752 0.786023L1.3594 49.5308C0.451868 50.0549 0 50.7422 0 51.4295V58.553C0 59.2403 0.451868 59.9276 1.3594 60.4516L76.5442 103.854C78.3631 104.902 81.3059 104.902 83.121 103.854L167.537 55.109C168.444 54.5849 168.9 53.8976 168.9 53.2103V46.0868Z" fill="#37474F"/>
<path d="M79.8212 4.23438L1.3594 49.5352C0.451868 50.0592 0 50.7465 0 51.4338V58.5573C0 59.2446 0.451868 59.9319 1.3594 60.456L76.5443 103.858C77.5556 104.396 78.6875 104.666 79.8326 104.644L79.8212 4.23438Z" fill="#263238"/>
<path d="M24.2895 66.5674L12.0967 59.5273L16.0154 68.9141L28.2121 75.9579L24.2895 66.5674ZM59.9834 87.1787L47.7905 80.1386L51.7092 89.5253L63.9059 96.5692L59.9834 87.1787ZM36.6077 73.6872L29.8221 69.7684L33.7408 79.1552L40.5302 83.0777L36.6077 73.6872Z" fill="#2A2D34"/>
<path d="M83.1096 96.7302L167.537 47.9854C168.444 47.4614 168.9 46.7741 168.9 46.0868C168.9 45.3995 168.444 44.7122 167.537 44.1882L92.352 0.786023C90.5369 -0.262008 87.5941 -0.262008 85.7752 0.786023L1.3594 49.5308C0.451868 50.0549 0 50.7422 0 51.4295C0 52.1168 0.451868 52.8041 1.3594 53.3281L76.5442 96.7302C78.3517 97.7783 81.2945 97.7783 83.1096 96.7302Z" fill="#455A64"/>
<path opacity="0.3" d="M167.535 47.9863L83.1073 96.7312C81.2922 97.7792 78.3456 97.7792 76.5305 96.7312L1.3457 53.329L76.5305 95.4781C78.3456 96.5261 81.2922 96.5261 83.1073 95.4781L167.535 47.9863Z" fill="#FAFAFA"/>
<path d="M159.923 47.0814L158.511 47.894L81.7271 92.2151C81.2176 92.4736 80.6543 92.6084 80.0829 92.6084C79.5115 92.6084 78.9482 92.4736 78.4387 92.2151L10.3774 52.9329L8.96483 52.1165C8.0573 51.5887 8.0573 50.7419 8.96483 50.2179L87.1609 5.06902C87.6704 4.81051 88.2337 4.67578 88.8051 4.67578C89.3765 4.67578 89.9398 4.81051 90.4493 5.06902L159.938 45.1828C160.831 45.7068 160.831 46.5574 159.923 47.0814Z" fill="#263238"/>
<path d="M158.516 47.9006L81.7324 92.2217C81.2229 92.4802 80.6596 92.6149 80.0882 92.6149C79.5169 92.6149 78.9536 92.4802 78.444 92.2217L10.3828 52.9395L87.1662 8.60696C87.6752 8.34667 88.2388 8.21094 88.8104 8.21094C89.3821 8.21094 89.9456 8.34667 90.4546 8.60696L158.516 47.9006Z" fill="#4FCA77"/>
<path opacity="0.3" d="M158.516 47.9006L81.7324 92.2217C81.2229 92.4802 80.6596 92.6149 80.0882 92.6149C79.5169 92.6149 78.9536 92.4802 78.444 92.2217L10.3828 52.9395L87.1662 8.60696C87.6752 8.34667 88.2388 8.21094 88.8104 8.21094C89.3821 8.21094 89.9456 8.34667 90.4546 8.60696L158.516 47.9006Z" fill="white"/>
<path opacity="0.2" d="M98.7675 13.4023L20.3398 58.6804L30.2999 64.4294L108.724 19.1475L98.7675 13.4023ZM118.684 24.9003L40.26 70.1935L50.2125 75.9387L128.644 30.6455L118.684 24.9003ZM138.6 36.3983L60.1764 81.6801L70.1289 87.4253L148.56 42.1435L138.6 36.3983Z" fill="white"/>
<path d="M76.674 87.102C76.6245 87.1029 76.5758 87.0897 76.5335 87.0641L21.2537 55.1485C21.2098 55.124 21.1732 55.0882 21.1478 55.0448C21.1224 55.0014 21.1092 54.952 21.1094 54.9017C21.1088 54.8513 21.1218 54.8017 21.1473 54.7582C21.1727 54.7147 21.2095 54.679 21.2537 54.6548L92.0831 13.7627C92.126 13.7365 92.1752 13.7227 92.2255 13.7227C92.2757 13.7227 92.325 13.7365 92.3679 13.7627L147.648 45.6782C147.69 45.7035 147.725 45.7393 147.75 45.7822C147.774 45.8252 147.787 45.8737 147.787 45.9232C147.787 45.9726 147.774 46.0211 147.75 46.0641C147.725 46.107 147.69 46.1429 147.648 46.1681L76.8183 87.0641C76.7744 87.0893 76.7246 87.1024 76.674 87.102ZM21.9638 54.9017L76.674 86.4869L146.922 45.9251L92.2236 14.336L21.9638 54.9017Z" fill="white"/>
<path d="M100.42 73.3966C100.37 73.397 100.32 73.3839 100.276 73.3587C97.0675 71.5056 95.3018 69.026 95.3018 66.3718C95.3018 63.7175 97.0675 61.2417 100.276 59.3887C106.792 55.6256 117.39 55.6256 123.906 59.3887C123.963 59.4302 124.003 59.4913 124.017 59.5603C124.032 59.6293 124.02 59.7012 123.985 59.7622C123.949 59.8231 123.893 59.8687 123.825 59.8902C123.758 59.9117 123.686 59.9076 123.621 59.8785C117.265 56.2104 106.914 56.2104 100.561 59.8785C97.5231 61.6252 95.8713 63.934 95.8713 66.3718C95.8713 68.8096 97.5345 71.1183 100.561 72.865C100.615 72.8962 100.658 72.9445 100.682 73.0022C100.706 73.06 100.71 73.1241 100.694 73.1846C100.678 73.2451 100.643 73.2987 100.593 73.337C100.544 73.3753 100.483 73.3963 100.42 73.3966Z" fill="white"/>
<path d="M71.0815 52.5272C70.2233 52.5272 69.3575 52.4854 68.4956 52.4095C68.4203 52.4018 68.3511 52.3648 68.3028 52.3066C68.2545 52.2484 68.231 52.1735 68.2374 52.0981C68.2441 52.0232 68.2802 51.9539 68.3379 51.9056C68.3955 51.8572 68.4699 51.8336 68.5449 51.8399C73.6977 52.3108 78.9683 51.3235 82.6402 49.2046C86.2437 47.1237 87.9259 44.1657 87.1399 41.2912C87.1299 41.2551 87.1272 41.2173 87.1318 41.1801C87.1364 41.1429 87.1483 41.1069 87.1668 41.0743C87.2042 41.0084 87.2662 40.9601 87.3392 40.94C87.4123 40.9198 87.4903 40.9295 87.5561 40.9669C87.622 41.0043 87.6703 41.0663 87.6905 41.1393C88.5487 44.2796 86.7678 47.4807 82.925 49.6983C79.7695 51.5171 75.4824 52.5272 71.0815 52.5272Z" fill="white"/>
<path d="M92.2241 16.4388C91.2561 16.4571 90.2995 16.2284 89.4445 15.7743C89.3819 15.7363 89.3361 15.6759 89.3164 15.6054C89.2966 15.5349 89.3044 15.4595 89.3382 15.3946C89.3761 15.3319 89.4368 15.2863 89.5075 15.2672C89.5782 15.2481 89.6536 15.257 89.7179 15.292C90.4913 15.6834 91.3459 15.8874 92.2127 15.8874C93.0794 15.8874 93.9341 15.6834 94.7074 15.292C94.7729 15.2543 94.8507 15.2441 94.9237 15.2636C94.9967 15.2832 95.0589 15.331 95.0967 15.3965C95.1344 15.4619 95.1446 15.5397 95.125 15.6127C95.1055 15.6857 95.0577 15.7479 94.9922 15.7857C94.1396 16.234 93.1872 16.4587 92.2241 16.4388Z" fill="white"/>
<path d="M24.0331 56.713C23.9829 56.7124 23.9338 56.6988 23.8905 56.6735C23.8472 56.6482 23.8113 56.6121 23.7862 56.5687C23.7515 56.5039 23.7432 56.4282 23.763 56.3574C23.7829 56.2867 23.8293 56.2263 23.8926 56.1889C24.5039 55.8358 24.8419 55.3839 24.8419 54.9131C24.8419 54.4422 24.5039 53.9904 23.8926 53.6372C23.8601 53.6185 23.8317 53.5936 23.8089 53.564C23.7862 53.5343 23.7694 53.5004 23.7597 53.4643C23.75 53.4281 23.7476 53.3904 23.7524 53.3533C23.7573 53.3162 23.7694 53.2804 23.7881 53.248C23.8068 53.2156 23.8317 53.1872 23.8614 53.1644C23.8911 53.1416 23.925 53.1249 23.9611 53.1152C23.9973 53.1055 24.035 53.103 24.0721 53.1079C24.1092 53.1128 24.1449 53.1249 24.1773 53.1436C24.971 53.6031 25.4114 54.2296 25.4114 54.9131C25.4114 55.5966 24.971 56.2231 24.1773 56.6826C24.1327 56.7052 24.083 56.7157 24.0331 56.713Z" fill="white"/>
<path d="M53.0457 61.348C52.9962 61.3489 52.9475 61.3357 52.9052 61.3101L31.7433 49.0944C31.6807 49.0564 31.6349 48.996 31.6152 48.9255C31.5954 48.855 31.6032 48.7797 31.637 48.7147C31.675 48.652 31.7356 48.6064 31.8063 48.5873C31.877 48.5683 31.9524 48.5771 32.0167 48.6122L53.0343 60.7443L102.311 32.2955L81.578 20.3267C81.5456 20.308 81.5172 20.2831 81.4944 20.2534C81.4716 20.2237 81.4549 20.1898 81.4452 20.1537C81.4355 20.1176 81.433 20.0799 81.4379 20.0428C81.4427 20.0057 81.4549 19.9699 81.4736 19.9375C81.4923 19.9051 81.5172 19.8767 81.5468 19.8539C81.5765 19.8311 81.6104 19.8144 81.6465 19.8047C81.6827 19.795 81.7204 19.7925 81.7575 19.7973C81.7946 19.8022 81.8304 19.8144 81.8628 19.8331L103.021 32.0487C103.065 32.0732 103.101 32.109 103.127 32.1524C103.152 32.1958 103.165 32.2452 103.165 32.2955C103.166 32.3459 103.153 32.3955 103.127 32.439C103.102 32.4825 103.065 32.5182 103.021 32.5423L53.19 61.3101C53.1461 61.3353 53.0963 61.3484 53.0457 61.348Z" fill="white"/>
<path d="M52.7074 45.326C52.6568 45.3264 52.607 45.3133 52.5631 45.2881L45.4509 41.1795C45.3869 41.1428 45.3399 41.0825 45.32 41.0114C45.3001 40.9404 45.3089 40.8643 45.3446 40.7998C45.3826 40.7371 45.4432 40.6915 45.5139 40.6724C45.5846 40.6533 45.66 40.6622 45.7243 40.6972L52.696 44.7185L74.5756 32.0928L67.8887 28.231C67.8563 28.2123 67.8278 28.1874 67.8051 28.1577C67.7823 28.128 67.7655 28.0942 67.7558 28.058C67.7462 28.0219 67.7437 27.9842 67.7485 27.9471C67.7534 27.91 67.7655 27.8742 67.7842 27.8418C67.8029 27.8094 67.8278 27.7809 67.8575 27.7582C67.8872 27.7354 67.9211 27.7186 67.9572 27.709C67.9934 27.6993 68.0311 27.6968 68.0682 27.7016C68.1053 27.7065 68.141 27.7186 68.1735 27.7373L75.278 31.8459C75.3223 31.8701 75.359 31.9058 75.3845 31.9493C75.4099 31.9928 75.423 32.0424 75.4223 32.0928C75.4218 32.1429 75.4082 32.192 75.3829 32.2353C75.3576 32.2786 75.3215 32.3145 75.278 32.3396L52.8479 45.2881C52.8054 45.3134 52.7568 45.3265 52.7074 45.326Z" fill="white"/>
<path d="M70.9506 43.203C71.5063 43.203 71.9569 42.9429 71.9569 42.622C71.9569 42.3011 71.5063 42.041 70.9506 42.041C70.3949 42.041 69.9443 42.3011 69.9443 42.622C69.9443 42.9429 70.3949 43.203 70.9506 43.203Z" fill="white"/>
<path d="M51.6034 37.7481C51.5528 37.7485 51.503 37.7354 51.4591 37.7101L49.1808 36.4039C49.1374 36.3789 49.1014 36.343 49.0763 36.2996C49.0513 36.2563 49.0381 36.2071 49.0381 36.1571C49.0381 36.107 49.0513 36.0579 49.0763 36.0145C49.1014 35.9712 49.1374 35.9352 49.1808 35.9103L59.6004 29.8955C59.6432 29.8693 59.6925 29.8555 59.7427 29.8555C59.793 29.8555 59.8423 29.8693 59.8851 29.8955L62.1635 31.2017C62.1959 31.2204 62.2243 31.2453 62.2471 31.275C62.2699 31.3047 62.2866 31.3386 62.2963 31.3747C62.306 31.4108 62.3085 31.4485 62.3036 31.4856C62.2987 31.5227 62.2866 31.5585 62.2679 31.5909C62.2492 31.6234 62.2243 31.6518 62.1946 31.6746C62.1649 31.6973 62.1311 31.7141 62.0949 31.7238C62.0588 31.7335 62.0211 31.7359 61.984 31.7311C61.9469 31.7262 61.9111 31.7141 61.8787 31.6954L59.7712 30.4689L49.9213 36.1647L51.7591 37.2241C51.8133 37.2553 51.8558 37.3036 51.8799 37.3613C51.904 37.4191 51.9084 37.4832 51.8924 37.5437C51.8764 37.6042 51.8409 37.6578 51.7914 37.6961C51.7419 37.7344 51.6812 37.7554 51.6186 37.7557L51.6034 37.7481Z" fill="white"/>
</svg>
