<svg width="160" height="160" viewBox="0 0 160 160" fill="none" xmlns="http://www.w3.org/2000/svg">
<path d="M133.898 117.089V113.182H129.539V105.601H123.277V74.8105H117.286V93.4217H111.84V86.7593H104.49V103.991H101.494V109.505H94.416V107.438H96.592V106.289H87.6064V107.668H88.6976V113.643H84.0672V102.382H67.7312V110.423H56.0192V104.449H51.664V111.115H42.4064V98.9353H38.5952V94.8009H31.7856V113.643H24.9792V117.777H20.624V130.414H142.339V117.089H133.898Z" stroke="#2E353A" stroke-miterlimit="10"/>
<path d="M34.4642 98.8809H32.9922V100.353H34.4642V98.8809Z" fill="#2E353A"/>
<path d="M37.5296 98.8809H36.0576V100.353H37.5296V98.8809Z" fill="#2E353A"/>
<path d="M34.4642 101.949H32.9922V103.421H34.4642V101.949Z" fill="#2E353A"/>
<path d="M37.5296 101.949H36.0576V103.421H37.5296V101.949Z" fill="#2E353A"/>
<path d="M40.8416 101.949H39.3696V103.421H40.8416V101.949Z" fill="#2E353A"/>
<path d="M40.8416 105.016H39.3696V106.488H40.8416V105.016Z" fill="#2E353A"/>
<path d="M40.8416 108.084H39.3696V109.556H40.8416V108.084Z" fill="#2E353A"/>
<path d="M40.8416 111.15H39.3696V112.622H40.8416V111.15Z" fill="#2E353A"/>
<path d="M40.8416 114.219H39.3696V115.691H40.8416V114.219Z" fill="#2E353A"/>
<path d="M40.8416 117.287H39.3696V118.759H40.8416V117.287Z" fill="#2E353A"/>
<path d="M34.4642 105.016H32.9922V106.488H34.4642V105.016Z" fill="#2E353A"/>
<path d="M37.5296 105.016H36.0576V106.488H37.5296V105.016Z" fill="#2E353A"/>
<path d="M34.4642 108.084H32.9922V109.556H34.4642V108.084Z" fill="#2E353A"/>
<path d="M37.5296 108.084H36.0576V109.556H37.5296V108.084Z" fill="#2E353A"/>
<path d="M34.4642 111.15H32.9922V112.622H34.4642V111.15Z" fill="#2E353A"/>
<path d="M37.5296 111.15H36.0576V112.622H37.5296V111.15Z" fill="#2E353A"/>
<path d="M34.4642 114.219H32.9922V115.691H34.4642V114.219Z" fill="#2E353A"/>
<path d="M27.7152 115.938H26.2432V117.41H27.7152V115.938Z" fill="#2E353A"/>
<path d="M48.9408 112.621H47.4688V114.093H48.9408V112.621Z" fill="#2E353A"/>
<path d="M51.8846 112.621H50.4126V114.093H51.8846V112.621Z" fill="#2E353A"/>
<path d="M119.738 76.5488H118.266V78.0208H119.738V76.5488Z" fill="#2E353A"/>
<path d="M121.577 76.5488H120.105V78.0208H121.577V76.5488Z" fill="#2E353A"/>
<path d="M119.738 79.6172H118.266V81.0892H119.738V79.6172Z" fill="#2E353A"/>
<path d="M121.577 79.6172H120.105V81.0892H121.577V79.6172Z" fill="#2E353A"/>
<path d="M119.738 82.6855H118.266V84.1575H119.738V82.6855Z" fill="#2E353A"/>
<path d="M121.577 82.6855H120.105V84.1575H121.577V82.6855Z" fill="#2E353A"/>
<path d="M119.738 85.752H118.266V87.224H119.738V85.752Z" fill="#2E353A"/>
<path d="M121.577 85.752H120.105V87.224H121.577V85.752Z" fill="#2E353A"/>
<path d="M119.738 88.8203H118.266V90.2923H119.738V88.8203Z" fill="#2E353A"/>
<path d="M121.577 88.8203H120.105V90.2923H121.577V88.8203Z" fill="#2E353A"/>
<path d="M119.738 91.8867H118.266V93.3587H119.738V91.8867Z" fill="#2E353A"/>
<path d="M121.577 91.8867H120.105V93.3587H121.577V91.8867Z" fill="#2E353A"/>
<path d="M119.738 94.9551H118.266V96.4271H119.738V94.9551Z" fill="#2E353A"/>
<path d="M121.577 94.9551H120.105V96.4271H121.577V94.9551Z" fill="#2E353A"/>
<path d="M119.738 98.0234H118.266V99.4954H119.738V98.0234Z" fill="#2E353A"/>
<path d="M121.577 98.0234H120.105V99.4954H121.577V98.0234Z" fill="#2E353A"/>
<path d="M119.738 101.09H118.266V102.562H119.738V101.09Z" fill="#2E353A"/>
<path d="M121.577 101.09H120.105V102.562H121.577V101.09Z" fill="#2E353A"/>
<path d="M107.223 101.09H105.75V102.562H107.223V101.09Z" fill="#2E353A"/>
<path d="M110.413 101.09H108.941V102.562H110.413V101.09Z" fill="#2E353A"/>
<path d="M113.603 101.09H112.131V102.562H113.603V101.09Z" fill="#2E353A"/>
<path d="M107.223 107.717H105.75V109.189H107.223V107.717Z" fill="#2E353A"/>
<path d="M110.413 107.717H108.941V109.189H110.413V107.717Z" fill="#2E353A"/>
<path d="M113.603 107.717H112.131V109.189H113.603V107.717Z" fill="#2E353A"/>
<path d="M107.223 114.34H105.75V115.812H107.223V114.34Z" fill="#2E353A"/>
<path d="M110.413 114.34H108.941V115.812H110.413V114.34Z" fill="#2E353A"/>
<path d="M113.603 114.34H112.131V115.812H113.603V114.34Z" fill="#2E353A"/>
<path d="M119.738 104.158H118.266V105.63H119.738V104.158Z" fill="#2E353A"/>
<path d="M121.577 104.158H120.105V105.63H121.577V104.158Z" fill="#2E353A"/>
<path d="M119.738 107.223H118.266V108.695H119.738V107.223Z" fill="#2E353A"/>
<path d="M121.577 107.223H120.105V108.695H121.577V107.223Z" fill="#2E353A"/>
<path d="M119.738 110.293H118.266V111.765H119.738V110.293Z" fill="#2E353A"/>
<path d="M121.577 110.293H120.105V111.765H121.577V110.293Z" fill="#2E353A"/>
<path d="M124.646 107.223H123.174V108.695H124.646V107.223Z" fill="#2E353A"/>
<path d="M128.083 107.223H126.611V108.695H128.083V107.223Z" fill="#2E353A"/>
<path d="M124.646 110.17H123.174V111.642H124.646V110.17Z" fill="#2E353A"/>
<path d="M128.083 110.17H126.611V111.642H128.083V110.17Z" fill="#2E353A"/>
<path d="M124.646 113.115H123.174V114.587H124.646V113.115Z" fill="#2E353A"/>
<path d="M128.083 113.115H126.611V114.587H128.083V113.115Z" fill="#2E353A"/>
<path d="M124.646 116.059H123.174V117.531H124.646V116.059Z" fill="#2E353A"/>
<path d="M128.083 116.059H126.611V117.531H128.083V116.059Z" fill="#2E353A"/>
<path d="M119.738 113.361H118.266V114.833H119.738V113.361Z" fill="#2E353A"/>
<path d="M121.577 113.361H120.105V114.833H121.577V113.361Z" fill="#2E353A"/>
<path d="M119.738 116.426H118.266V117.898H119.738V116.426Z" fill="#2E353A"/>
<path d="M121.577 116.426H120.105V117.898H121.577V116.426Z" fill="#2E353A"/>
<path d="M37.5296 114.219H36.0576V115.691H37.5296V114.219Z" fill="#2E353A"/>
<path d="M34.4642 117.287H32.9922V118.759H34.4642V117.287Z" fill="#2E353A"/>
<path d="M37.5296 117.287H36.0576V118.759H37.5296V117.287Z" fill="#2E353A"/>
<path d="M34.4642 120.354H32.9922V121.826H34.4642V120.354Z" fill="#2E353A"/>
<path d="M37.5296 120.354H36.0576V121.826H37.5296V120.354Z" fill="#2E353A"/>
<path d="M34.4642 123.422H32.9922V124.894H34.4642V123.422Z" fill="#2E353A"/>
<path d="M37.5296 123.422H36.0576V124.894H37.5296V123.422Z" fill="#2E353A"/>
<path d="M115.075 124.344V130.414H102.807V118.344H115.075V123.262" stroke="#2E353A" stroke-miterlimit="10"/>
<path d="M137.654 128.58V130.414H125.382V124.033H127.917" stroke="#2E353A" stroke-miterlimit="10"/>
<path d="M129.411 124.033H137.654V127.585" stroke="#2E353A" stroke-miterlimit="10"/>
<path d="M47.2193 124.033H55.9361V130.414H43.6641V124.033H46.0545" stroke="#2E353A" stroke-miterlimit="10"/>
<path d="M28.0225 124.033H29.1873V130.414H24.6465V124.033H27.1073" stroke="#2E353A" stroke-miterlimit="10"/>
<path d="M109.92 118.344H107.958V130.414H109.92V118.344Z" stroke="#2E353A" stroke-miterlimit="10"/>
<path d="M94.672 119.985H92.7456V116.795H99.248V119.985H96.4192" stroke="#2E353A" stroke-miterlimit="10"/>
<path d="M60.2304 114.586H52.7456V117.287H60.2304V114.586Z" stroke="#2E353A" stroke-miterlimit="10"/>
<path d="M57.0402 114.586H56.3042V130.413H57.0402V114.586Z" stroke="#2E353A" stroke-miterlimit="10"/>
<path d="M80.0002 18.4414C69.0521 18.4414 58.5523 22.7905 50.8108 30.532C43.0693 38.2735 38.7202 48.7733 38.7202 59.7214C38.7202 80.3134 76.8002 128.841 76.8002 128.841H80.0002C80.0002 128.841 121.28 82.5182 121.28 59.7214C121.28 48.7733 116.931 38.2735 109.19 30.532C101.448 22.7905 90.9483 18.4414 80.0002 18.4414ZM80.0002 79.8814C76.0129 79.8814 72.1152 78.6991 68.7999 76.4838C65.4846 74.2686 62.9007 71.1201 61.3748 67.4363C59.8489 63.7526 59.4497 59.699 60.2276 55.7884C61.0055 51.8777 62.9255 48.2856 65.7449 45.4661C68.5644 42.6467 72.1565 40.7267 76.0672 39.9488C79.9778 39.1709 84.0314 39.5701 87.7151 41.096C91.3989 42.6219 94.5474 45.2058 96.7626 48.5211C98.9779 51.8364 100.16 55.7341 100.16 59.7214C100.16 62.3689 99.6388 64.9904 98.6256 67.4363C97.6125 69.8822 96.1275 72.1047 94.2555 73.9767C92.3835 75.8487 90.161 77.3337 87.7151 78.3468C85.2692 79.36 82.6477 79.8814 80.0002 79.8814Z" fill="#2E353A" stroke="#2E353A" stroke-linecap="round" stroke-linejoin="round"/>
<path d="M76.8 18.4414C65.8519 18.4414 55.3521 22.7905 47.6106 30.532C39.8691 38.2735 35.52 48.7733 35.52 59.7214C35.52 82.5182 76.8 128.841 76.8 128.841C76.8 128.841 118.08 82.5182 118.08 59.7214C118.08 48.7733 113.731 38.2735 105.989 30.532C98.2479 22.7905 87.7482 18.4414 76.8 18.4414ZM76.8 79.8814C72.8127 79.8814 68.915 78.6991 65.5997 76.4838C62.2844 74.2686 59.7005 71.1201 58.1746 67.4363C56.6487 63.7526 56.2495 59.699 57.0274 55.7884C57.8053 51.8777 59.7253 48.2856 62.5447 45.4661C65.3642 42.6467 68.9563 40.7267 72.867 39.9488C76.7777 39.1709 80.8312 39.5701 84.5149 41.096C88.1987 42.6219 91.3472 45.2058 93.5625 48.5211C95.7777 51.8364 96.96 55.7341 96.96 59.7214C96.96 65.0682 94.836 70.196 91.0553 73.9767C87.2746 77.7574 82.1468 79.8814 76.8 79.8814Z" fill="#4FCA77" stroke="#2E353A" stroke-linecap="round" stroke-linejoin="round"/>
</svg>
